<svg xmlns="http://www.w3.org/2000/svg" viewBox="0 0 200 200"><defs><style>.cls-1{fill:#c69c6d;}.cls-2{fill:#a67c52;}.cls-3,.cls-5{fill:none;stroke:#754c24;stroke-linecap:round;stroke-linejoin:round;}.cls-3{stroke-width:5px;}.cls-4{fill:#754c24;}.cls-5{stroke-width:5.36px;}</style></defs><g id="圖層_1" data-name="圖層 1"><rect class="cls-1" x="39.34" y="144.31" width="26.53" height="48.4" rx="2.46" transform="translate(-103.74 86.55) rotate(-45)"/><path class="cls-2" d="M169.51,123.8h0a8.06,8.06,0,0,0-11.39,0L139,142.94h0a7.72,7.72,0,0,0-7.24-5.06h-29l-4.2-2.45A21.08,21.08,0,0,0,73,138.75l-12.7,12.7,25.62,25.62,4.48-4.48a11.29,11.29,0,0,1,8-3.31h40a7.3,7.3,0,0,0,5.65-2.69l26.05-32A8.05,8.05,0,0,0,169.51,123.8Z"/><path class="cls-1" d="M152.84,43.93c0-.08,0-.16,0-.24A28.91,28.91,0,0,0,98.37,30.18,17.69,17.69,0,0,0,69.23,43.69h-7A21.62,21.62,0,0,0,40.6,65.31h0A21.62,21.62,0,0,0,62.22,86.93h87.56A21.62,21.62,0,0,0,171.4,65.31h0A21.6,21.6,0,0,0,152.84,43.93Z"/><polygon class="cls-2" points="120.69 104.97 120.69 95.76 94.31 95.76 94.31 104.97 72.76 104.97 107.5 127.54 142.25 104.97 120.69 104.97"/></g><g id="圖層_2" data-name="圖層 2"><rect class="cls-3" x="45.34" y="144.31" width="26.53" height="48.4" rx="2.46" transform="translate(-101.98 90.8) rotate(-45)"/><circle class="cls-4" cx="51.49" cy="158.05" r="2.89"/><path class="cls-3" d="M55.32,146.45,68,133.75a21.08,21.08,0,0,1,25.51-3.32l4.2,2.45h29a7.71,7.71,0,0,1,7.71,7.71h0a7.71,7.71,0,0,1-7.71,7.71h-25"/><path class="cls-3" d="M80.94,172.07l4.48-4.48a11.29,11.29,0,0,1,8-3.31h40a7.3,7.3,0,0,0,5.65-2.69l26.05-32a8.05,8.05,0,0,0-.55-10.78h0a8,8,0,0,0-11.39,0L134,137.94"/><path class="cls-5" d="M146.84,37.93c0-.08,0-.16,0-.24A28.91,28.91,0,0,0,92.37,24.18,17.69,17.69,0,0,0,63.23,37.69h-7A21.62,21.62,0,0,0,34.6,59.31h0A21.62,21.62,0,0,0,56.22,80.93h87.56A21.62,21.62,0,0,0,165.4,59.31h0A21.6,21.6,0,0,0,146.84,37.93Z"/><polygon class="cls-5" points="115.69 99.97 115.69 90.76 89.31 90.76 89.31 99.97 67.76 99.97 102.5 122.54 137.25 99.97 115.69 99.97"/></g></svg>