<svg xmlns="http://www.w3.org/2000/svg" viewBox="0 0 200 200"><defs><style>.cls-1{fill:#c69c6d;}.cls-2{fill:#8c6239;}.cls-3{fill:#a67c52;}.cls-4{fill:#754c24;}.cls-5{fill:none;stroke:#754c24;stroke-linecap:round;stroke-linejoin:round;stroke-width:5px;}</style></defs><g id="圖層_1" data-name="圖層 1"><rect class="cls-1" x="10.61" y="71.02" width="115.6" height="110.23" rx="6.85"/><path class="cls-2" d="M60.77,130.06l-6.21,2.33A3.38,3.38,0,0,1,50,129.31l-.15-6.63a9.73,9.73,0,0,1,1.65-5.61l5.38-8,13.86,9.37-5.38,8A9.6,9.6,0,0,1,60.77,130.06Z"/><path class="cls-1" d="M116.59,24.12h9.12a3.8,3.8,0,0,1,3.8,3.8v6.84a0,0,0,0,1,0,0H112.79a0,0,0,0,1,0,0V27.92A3.8,3.8,0,0,1,116.59,24.12Z" transform="translate(37.27 -62.8) rotate(34.06)"/><path class="cls-3" d="M144.77,68.27a20.33,20.33,0,0,1-10.34-2.84l-15.76-9.36a22,22,0,0,0-3.31-1.61l-19.24-1.4H79.47a18.35,18.35,0,0,0-15.84,9.09L50.05,85.39a5.8,5.8,0,0,0,1.48,7.53l2.84,2.17a5.8,5.8,0,0,0,8.05-1L62.7,94a5.68,5.68,0,0,0,0,.59v3.93A6.45,6.45,0,0,0,69.12,105H81.93v11.07a7.23,7.23,0,0,0,7.23,7.23h0a7.23,7.23,0,0,0,7.22-7.23v0a6,6,0,0,0,6,6h2.36a6,6,0,0,0,6-6v-4.61a47.22,47.22,0,0,0,8.89,1.43h20.35a21.34,21.34,0,0,0,5.79-.79l8.34-2.33V68.27Z"/><polygon class="cls-2" points="113.6 26.17 127.46 35.53 96.01 82.18 75.74 82.18 113.6 26.17"/><polygon class="cls-2" points="57.98 107.98 65.54 97.5 71.91 98.88 83.39 99.87 71.95 116.79 57.98 107.98"/><rect class="cls-1" x="156.19" y="57.14" width="35.99" height="66.83" rx="5.2"/></g><g id="圖層_2" data-name="圖層 2"><circle class="cls-4" cx="160.52" cy="62.07" r="3.12"/><rect class="cls-5" x="152.19" y="52.14" width="35.99" height="66.83" rx="4.77"/><path class="cls-5" d="M94.12,47.06H77.47a18.35,18.35,0,0,0-15.84,9.09L48.05,79.39a5.8,5.8,0,0,0,1.48,7.53l2.84,2.17a5.8,5.8,0,0,0,8.05-1h0"/><path class="cls-5" d="M152.19,62.26h-9.42a20.32,20.32,0,0,1-10.34-2.83l-15.76-9.36a22,22,0,0,0-3.31-1.61"/><path class="cls-5" d="M115.67,72.66l-9.53,9.52h-39a6.45,6.45,0,0,0-6.45,6.45v3.93A6.45,6.45,0,0,0,67.12,99H96.76l11.32,5.67a21.61,21.61,0,0,0,9.63,2.27h20.35a21.34,21.34,0,0,0,5.79-.79l8.34-2.33"/><path class="cls-5" d="M94.38,99v11.07a7.22,7.22,0,0,1-7.22,7.22h0a7.23,7.23,0,0,1-7.23-7.22V99"/><path class="cls-5" d="M108.82,105.52v4.61a6,6,0,0,1-6,6h-2.36a6,6,0,0,1-6-6V99"/><polyline class="cls-5" points="70.38 82.18 108.24 26.17 122.1 35.53 90.57 82.18"/><polyline class="cls-5" points="79.19 99.01 68.74 114.48 54.88 105.11 61.38 95.5"/><path class="cls-5" d="M113.59,21.12h9.12a3.8,3.8,0,0,1,3.8,3.8v6.84a0,0,0,0,1,0,0H109.79a0,0,0,0,1,0,0V24.92a3.8,3.8,0,0,1,3.8-3.8Z" transform="translate(35.07 -61.63) rotate(34.06)"/><path class="cls-5" d="M58.76,126.06l-6.2,2.33A3.38,3.38,0,0,1,48,125.31l-.15-6.63a9.73,9.73,0,0,1,1.65-5.61l5.38-8,13.86,9.37-5.38,8A9.58,9.58,0,0,1,58.76,126.06Z"/><path class="cls-5" d="M131.21,117.3v52.3a6.64,6.64,0,0,1-6.64,6.65H22.26a6.65,6.65,0,0,1-6.65-6.65V103.24"/><path class="cls-5" d="M15.61,92.67V72.73a6.64,6.64,0,0,1,6.65-6.64H44.43"/><line class="cls-5" x1="28.1" y1="131.26" x2="35.47" y2="131.26"/><line class="cls-5" x1="28.1" y1="143.58" x2="118.15" y2="143.58"/><line class="cls-5" x1="28.1" y1="157.99" x2="118.15" y2="157.99"/></g></svg>