<svg xmlns="http://www.w3.org/2000/svg" viewBox="0 0 409.84 204.92"><defs><style>.cls-1,.cls-3{fill:#42210b;}.cls-2{writing-mode:tb;text-orientation:upright;glyph-orientation-vertical:0deg;font-size:81.65px;fill:#603813;font-family:NotoSerifCJKtc-Regular-B5pc-H, Noto Serif CJK TC;}.cls-3{font-size:27.6px;font-family:NotoSansMonoCJKtc-Regular-B5pc-H, Noto Sans Mono CJK TC;}</style></defs><g id="圖層_1" data-name="圖層 1"><path class="cls-1" d="M101.46,1V101.46H1V1H101.46m1-1H0V102.46H102.46V0Z"/><path class="cls-1" d="M203.92,1V101.46H103.46V1H203.92m1-1H102.46V102.46H204.92V0Z"/><path class="cls-1" d="M306.38,1V101.46H205.92V1H306.38m1-1H204.92V102.46H307.38V0Z"/><path class="cls-1" d="M408.84,1V101.46H308.38V1H408.84m1-1H307.38V102.46H409.84V0Z"/><path class="cls-1" d="M101.46,103.46V203.92H1V103.46H101.46m1-1H0V204.92H102.46V102.46Z"/><path class="cls-1" d="M203.92,103.46V203.92H103.46V103.46H203.92m1-1H102.46V204.92H204.92V102.46Z"/><path class="cls-1" d="M306.38,103.46V203.92H205.92V103.46H306.38m1-1H204.92V204.92H307.38V102.46Z"/><path class="cls-1" d="M408.84,103.46V203.92H308.38V103.46H408.84m1-1H307.38V204.92H409.84V102.46Z"/></g><g id="圖層_2" data-name="圖層 2"><text class="cls-2" transform="translate(51.23 10.93)">老</text><text class="cls-2" transform="translate(256.15 10.93)">時</text><text class="cls-2" transform="translate(358.61 10.93)">光</text><text class="cls-2" transform="translate(51.23 112.98)">照</text><text class="cls-2" transform="translate(153.69 112.98)">相</text><text class="cls-2" transform="translate(256.15 112.98)">館</text><text class="cls-3" transform="translate(327.03 139.5)">Old <tspan x="0" y="26">Time </tspan><tspan x="0" y="52">Story</tspan></text><path class="cls-1" d="M153.93,40.85a11.77,11.77,0,0,0-4.09.73,7.1,7.1,0,0,1-5.28,11.85,7.22,7.22,0,0,1-2.38-.42,11.75,11.75,0,1,0,11.75-12.16Z"/><path class="cls-1" d="M192.75,40.89l1.44-2.29V35.07a2.28,2.28,0,0,0-2.29-2.28H175.74a4.51,4.51,0,0,1-4.32-3.22l-1.1-3.68a4.22,4.22,0,0,0-4-3H141.56a4.22,4.22,0,0,0-4,3l-1.1,3.68a4.51,4.51,0,0,1-4.32,3.22H116a2.28,2.28,0,0,0-2.29,2.28V38.6l1.44,2.29A5.87,5.87,0,0,1,116,44V62.8a5.9,5.9,0,0,1-.9,3.13l-1.44,2.29v3.53A2.28,2.28,0,0,0,116,74h22.39a2.14,2.14,0,0,0,1.64-.77l.93-1.11a2.55,2.55,0,0,1,2-.92H165a2.55,2.55,0,0,1,2,.92l.94,1.11a2.11,2.11,0,0,0,1.64.77H191.9a2.28,2.28,0,0,0,2.29-2.28V68.22l-1.44-2.29a5.9,5.9,0,0,1-.9-3.13V44A5.87,5.87,0,0,1,192.75,40.89Zm-59.58,3.33a2.74,2.74,0,1,1,2.74-2.74A2.74,2.74,0,0,1,133.17,44.22Zm13.81-17,.28-.68a2,2,0,0,1,1.85-1.22h9.63a2,2,0,0,1,1.85,1.22l.28.68a.65.65,0,0,1-.6.9H147.58A.65.65,0,0,1,147,27.24Zm7,40.45A15.09,15.09,0,1,1,169,52.6,15.09,15.09,0,0,1,153.93,67.69Z"/><path class="cls-1" d="M120.8,27.68h7.52a1.23,1.23,0,0,1,1.23,1.23v1.8a0,0,0,0,1,0,0h-10a0,0,0,0,1,0,0v-1.8A1.23,1.23,0,0,1,120.8,27.68Z"/><path class="cls-1" d="M178.09,27.68h7.52a1.23,1.23,0,0,1,1.23,1.23v1.8a0,0,0,0,1,0,0h-10a0,0,0,0,1,0,0v-1.8A1.23,1.23,0,0,1,178.09,27.68Z"/></g></svg>