<?xml version="1.0" encoding="utf-8"?>
<!-- Generator: Adobe Illustrator 26.0.3, SVG Export Plug-In . SVG Version: 6.00 Build 0)  -->
<svg version="1.1" id="圖層_1" xmlns="http://www.w3.org/2000/svg" xmlns:xlink="http://www.w3.org/1999/xlink" x="0px" y="0px"
	 viewBox="0 0 84 84" style="enable-background:new 0 0 84 84;" xml:space="preserve">
<style type="text/css">
	.st0{opacity:0.3;}
	.st1{fill-rule:evenodd;clip-rule:evenodd;fill:#A29988;}
</style>
<g class="st0">
	<g>
		<path class="st1" d="M84,23c-4.4,0-8-3.6-8-8V8h-7c-4.4,0-8-3.6-8-8H23c0,4.4-3.6,8-8,8H8v7c0,4.4-3.6,8-8,8v38c4.4,0,8,3.6,8,8v7
			h7c4.4,0,8,3.6,8,8h38c0-4.4,3.6-8,8-8h7v-7c0-4.4,3.6-8,8-8V23z M59,83H43V66.9c5.1-0.5,9-4.8,9-9.9v-5h5c5.2,0,9.4-3.9,9.9-9h16
			v16c-5.1,0.5-9,4.8-9,9.9v5h-5C63.8,74,59.6,77.9,59,83L59,83z M25,83h16V66.9c-5.1-0.5-9-4.8-9-9.9v-5h-5c-5.2,0-9.4-3.9-10-9H1
			v16c5.1,0.5,9,4.8,9,9.9v5h5C20.2,74,24.4,77.9,25,83L25,83z M25,1h16v16c-5.1,0.5-9,4.8-9,9.9v5h-5c-5.2,0-9.4,3.9-10,9H1v-16
			c5.1-0.5,9-4.8,9-9.9v-5h5C20.2,10,24.4,6.1,25,1L25,1z M59,1H43v16c5.1,0.5,9,4.8,9,9.9v5h5c5.2,0,9.4,3.9,9.9,9h16v-16
			c-5.1-0.5-9-4.8-9-9.9v-5h-5C63.8,10,59.6,6.1,59,1L59,1z M50,50v7c0,4.4-3.6,8-8,8s-8-3.6-8-8v-7h-7c-4.4,0-8-3.6-8-8s3.6-8,8-8
			h7v-7c0-4.4,3.6-8,8-8s8,3.6,8,8v7h7c4.4,0,8,3.6,8,8s-3.6,8-8,8H50z"/>
	</g>
</g>
</svg>
