<?xml version="1.0" encoding="utf-8"?>
<!-- Generator: Adobe Illustrator 26.0.3, SVG Export Plug-In . SVG Version: 6.00 Build 0)  -->
<svg version="1.1" xmlns="http://www.w3.org/2000/svg" xmlns:xlink="http://www.w3.org/1999/xlink" x="0px" y="0px"
	 viewBox="0 0 1555.8 2071.9" style="enable-background:new 0 0 1555.8 2071.9;" xml:space="preserve">
<style type="text/css">
	.st0{fill:#FFFFFF;stroke:#201513;stroke-width:1.37;stroke-miterlimit:10;}
	.st1{display:none;}
	.st2{display:inline;}
	.st3{fill:#FFFFFF;}
	.st4{fill:#231815;}
</style>
<g id="圖層_1">
	<g id="圖層_2_00000037674214025575827710000009466692520542984603_">
		<rect x="1459.6" y="323.7" class="st0" width="32.8" height="32.8"/>
		<rect x="364.7" y="1557.8" class="st0" width="8.2" height="21.8"/>
		<polygon class="st0" points="438.4,1782.1 425.1,1782.1 400.9,1806.3 400.9,1811.8 388.8,1811.8 388.8,1800.3 396.4,1792.7 
			396.4,1785.5 402.9,1779 396.1,1772.2 405.6,1762.6 413.8,1762.6 419.4,1757.1 427.5,1765.2 438.4,1765.2 		"/>
		<path class="st0" d="M588.6,700.9l25.7,25.7h22.8l10.7,10.7l0,0l6.4,6.4v25.1h4.1l-0.2-0.2l0.2,0.2h31.4l23.2,23.2H738l68-68h81.7
			l19.2-19.2h20.3l33.5-33.5h72.9l23.6-23.6l14.6,14.6h32.8l24.5-24.5h19.4l15.6-15.6v-19.9l10.4-10.4h-51.3l-26.8-26.8v-20.2h-34.4
			l-25.2,25.1l-14.2-14.2l-24.5,24.5H979l-21.9,21.9h-22.8l-17.9,17.9l-22.7-22.7h-23.9l-23.5-23.5v36.9l-33.1,33.1l-40.3-40.3
			h-39.6l-47.1-47.1V533l-21.7-21.7L603.9,572h9.9l10.3,10.3h17.2l26.5,26.5H691v7.3h-26.2l-24.4-24.4h-16.8l-10.5-10.5h-18.4
			l-10.1,10.1V631l-20.5,20.5l24.5,24.5V700.9z M995.4,635h41v10.9h-41V635z M924.4,645.9H949v13.7h-24.6L924.4,645.9z"/>
		<polygon class="st0" points="525.8,879.3 551,904.6 654.1,904.6 668.8,889.9 648.7,869.8 666.4,852 666.4,777 658.2,768.8 
			654.1,768.8 654.1,743.7 647.7,737.3 609.1,737.3 572.3,700.5 572.3,681.3 553.3,662.3 528.8,686.8 528.8,752.6 415.5,865.9 
			428.9,879.3 		"/>
		<path class="st0" d="M308.1,1307.9l8.5-8.4h29l15.5-15.5H372l28.7-28.7h31.6l16.5,16.5v9l14.6,14.6h7.8v-10.5h17.4l9.1-9.1h11.8
			l8.6,8.6v10.9h16l8.4,8.4v9.2l9,9v19.9l15.3-15.3h25.4l77.2-77.2V1229l-5.7-5.7l-15,15h-27.3l-8-8l-11.1,11.1h-14l-12.4-12.4l0,0
			l-7.1-7v-64.7l-13.5-13.5l-6,6l-8.5-8.5l6-6l-9.6-9.6h-31.2l-10.9,10.9h-54.4l-40.3,40.3h-66.9l-11.3-11.3l-72.7,72.7v52.6l29,29
			l12-12L308.1,1307.9z M542.1,1156.5h13.7v13.7h-13.6L542.1,1156.5z M465.7,1235.7l5.5-5.5h8.2v10.9l2.7,2.7h16.4v-2.7l2.7-2.7v-5
			h10.1v7l-7.4,7.4h-8v6.3l-4.8,4.8h-15.9l-9.6-9.6L465.7,1235.7z M299.1,1251.1h9v7.2l-5.1,5.1v7.8H291l-0.1-11.8L299.1,1251.1z"/>
		<polygon class="st0" points="790.6,1099.8 754.8,1064 783.8,1035 742.8,994 719.6,1017.2 719.6,1042.2 666.8,1042.2 646.6,1022 
			634.7,1033.9 591.6,1033.9 555.8,998.1 485.1,998.1 468.4,1014.8 452.3,1014.8 447.1,1020 447.1,1033.9 438.7,1033.9 
			430.7,1041.8 430.7,1058.3 408.5,1058.3 402.2,1052 397.5,1056.7 397.5,1068.2 346.5,1068.2 331.9,1053.7 305.1,1053.7 
			305.1,1082.2 311.1,1088.2 348.1,1088.2 356.4,1079.9 399.4,1079.9 393.4,1085.9 361.4,1085.9 352.3,1095 317.9,1095 322,1099.1 
			322,1149.4 340,1167.5 397.5,1167.5 439.2,1125.7 488.5,1125.7 504.1,1110.2 525.8,1110.2 557.2,1078.7 572.2,1078.7 532,1119 
			511.4,1119 511.4,1125.8 537,1125.8 546.6,1135.3 549.2,1132.8 557.7,1141.3 555.1,1143.8 568.6,1157.3 568.6,1222 577.1,1213.4 
			583.9,1213.4 583.9,1205.6 591.7,1197.8 604.3,1197.8 604.3,1187.2 614.5,1177 633.1,1177 633.1,1191.8 621.3,1191.8 
			613.8,1199.3 613.8,1208.3 593,1229.1 575.7,1229.1 588.2,1241.5 602.2,1241.5 613.4,1230.4 621.3,1238.4 648.7,1238.4 
			663.7,1223.4 644.5,1204.2 662.3,1186.5 680.9,1205.1 700.5,1185.4 735,1185.4 808.2,1112.2 833.7,1112.2 846.1,1099.8 		"/>
		<polygon class="st0" points="305.1,976.3 395.2,886.2 406.2,897.2 517.5,897.2 540.9,920.5 654.2,920.5 676.8,898 676.8,898 
			680.7,901.9 666.4,916.2 666.4,944.9 650,961.2 669.1,980.4 651.4,998.1 673.2,1020 684.1,1020 697.8,1006.3 708.7,1006.3 
			719.6,1017.2 719.6,1042.2 666.8,1042.2 646.6,1022 634.7,1033.9 591.6,1033.9 555.8,998.1 473.9,998.1 464.3,1007.7 
			446.6,1007.7 436.4,1017.9 436.4,1025.4 422,1025.4 422,1047.2 406.9,1047.2 397.7,1038 390.2,1045.5 390.2,1056.7 349.8,1056.7 
			337.5,1044.4 305.1,1044.4 		"/>
		<path class="st0" d="M967.2,270h23.2l22.5,22.5V315h34.4l49.4,49.4l-9.8,9.8l30,30v28.1l24.2,24.2h45.5l17.3-17.3l-15.9-15.9
			l16.4-16.3l-41-41l23.2-23.2l-27.3-27.3h-26.6v-17.1l-26.6-26.6v-23.1l10.3-10.3h42.1l13-13V205l-24.7-24.7h-35.3l-31.3-31.3
			h-16.3l-35.7,35.7h-54.4l-56.3,56.3h20.6L967.2,270z M1104.5,320.9l5.5,5.5h16.4v10.9h-19.1l-5.5-5.5h-24.6l-10.9-10.9
			L1104.5,320.9z"/>
		<path class="st0" d="M686.2,556.5l47.1,47.1h39.6l40.3,40.3l33.1-33.1v-36.9l23.5,23.5h23.9l22.7,22.7l17.9-17.9h22.8l21.9-21.9
			h19.2l24.5-24.5l14.2,14.2l25.1-25.1v-31.1l-23-23h-29.5L994.3,506H966l-21.7-21.7V454l-47-47v-27.3h-37.1l-22.8-22.8l-35.8,35.8
			h-18.4L664.5,511.4l21.7,21.6V556.5z M832.2,442.6l12.5-12.5h8.7l-0.2,13.8l-5.2,5.3h-15.8L832.2,442.6z"/>
		<path class="st0" d="M1057.2,647.7l-23.6,23.6h-72.9l-33.5,33.5h-20.3L887.6,724H806l-68,68h-25.2l-23.2-23.2h-31.4l8.2,8.2v75
			l-17.7,17.8l20.1,20.1l4.1-4.1h47.1l13.3,13.3h51.3l25.1-25.1v12.1l-24.5,24.5h-60L712.4,898h-35.5l3.9,3.9l-14.3,14.3v28.7
			L650,961.2l19.1,19.1l-17.7,17.8l21.8,21.9h10.9l13.7-13.7h10.9l10.9,10.9l23.2-23.3l41,41l-29,29l35.8,35.8h77.2l28,28l15-15
			l-11-11l16.5-16.5h24.4l41.4-41.4h26.3l13-13v-23.2l17.8-17.7v-24.7l-29.4-29.3l41.7-41.7v-23.2l15-15v-35.5l-18.4-18.5l19.8-19.8
			v-17.8l22.2-22.3l-25.4-25.4v-20.6h27.8l12.3-12.3v-21.8h-32.8L1057.2,647.7z M849.8,888.9h-11.8v4.9h-9.8l-6.3-6.3v-15h21.5
			l6.4,6.4V888.9z M943.8,834.4l-8.4,8.4v7.8h-11V837l10.9-10.9h8.5L943.8,834.4z M992.7,794.1l-11.5,11.5v15h-11.5v-20.3l23-23
			L992.7,794.1z"/>
		<path class="st0" d="M385.3,1426.9H444l10.8-10.8h42.4l19.4-19.4v-20.1l34.8-34.8l-8.6-8.6V1323l-20.8-20.8h-18.1v-14.7h-5.5
			l-6.8,6.8h-12.3v9.6l-9.5,9.6h-9.6l-10.6-10.6v-9.8l-8.4-8.3v-10.8l-9.6-9.6h-28.8l-30.8,30.8H362l-14,14h-27l-9.7,9.7h-17.6
			l-8.3,8.3l37,37v36.2h36.2L385.3,1426.9z M449.3,1336.7h16.4v16.4h-16.4L449.3,1336.7z"/>
		<polygon class="st0" points="1131.9,1161.9 1131.9,1186.1 1108.5,1209.5 1108.5,1260.2 1087.4,1281.3 1087.4,1303.7 
			1065.9,1325.2 1048.5,1325.2 990.8,1267.5 962.6,1267.5 944,1248.9 927.1,1248.9 927.1,1232.7 915,1220.5 915,1200.2 
			898.1,1200.2 898.1,1207.1 844.4,1207.1 816.9,1234.6 816.9,1251.4 795.3,1273.1 795.3,1361.2 756.1,1400.4 756.1,1439.6 
			780.6,1464.1 780.6,1495 804,1495 804,1560.6 735.6,1560.6 701.7,1594.5 701.7,1631.8 716,1646.1 716,1751.7 731.5,1767.2 
			716.9,1781.7 738.8,1803.6 738.8,1817.2 756.5,1835 791.2,1835 791.2,1727.7 903.8,1615.2 903.8,1561.2 963.3,1561.2 
			1008.3,1516.2 1008.3,1481.4 1037.7,1481.4 1048.1,1470.5 1048.1,1452.2 1073.3,1426.9 1073.3,1411.9 1154,1331.2 1154,1236 
			1192.6,1197.4 1192.6,1140.1 1153.8,1140.1 		"/>
		<polygon class="st0" points="1260,637.9 1236,613.9 1203.1,613.9 1181.1,591.8 1174.5,591.8 1164.2,602.2 1164.2,622.1 
			1148.5,637.8 1129.1,637.8 1104.6,662.3 1104.6,684.1 1092.3,696.4 1064.6,696.4 1064.6,717 1090,742.4 1067.8,764.7 
			1067.8,782.4 1048,802.2 1066.4,820.7 1066.4,856.1 1051.4,871.2 1051.4,894.3 1009.8,936 1039.1,965.3 1039.1,989.9 
			1021.3,1007.7 1021.3,1030.9 1008.3,1043.9 982,1043.9 940.6,1085.3 916.2,1085.3 899.8,1101.8 910.8,1112.8 895.7,1127.8 
			895.7,1150.6 877.9,1168.4 898.1,1188.6 898.1,1200.2 915,1200.2 915,1220.5 927.1,1232.7 927.1,1248.9 944,1248.9 962.6,1267.5 
			990.8,1267.5 1048.5,1325.2 1065.9,1325.2 1087.4,1303.7 1087.4,1281.3 1108.5,1260.2 1108.5,1209.5 1131.9,1186.1 1131.9,1161.9 
			1153.8,1140.1 1192.6,1140.1 1192.6,1115.4 1177.3,1130.7 1158.7,1130.7 1132.6,1104.6 1132.6,1092.2 1123.7,1083.3 
			1088.8,1083.3 1073.3,1098.9 1061.2,1098.9 1045.9,1114.2 1035,1103.2 1030.6,1107.6 1013.9,1090.8 1000.8,1090.8 995.4,1085.5 
			1017.2,1085.5 1030.1,1098.4 1036.1,1092.4 1046.1,1102.3 1057.6,1090.7 1069,1090.7 1088.2,1071.5 1126.8,1071.5 1146.2,1090.9 
			1146.2,1100.3 1163.3,1117.4 1177.5,1117.4 1192.6,1102.3 1192.6,1077.9 1213.8,1056.7 1213.8,1006.2 1238.2,981.7 1238.2,927 
			1270.8,894.3 1270.8,847.6 1286.9,831.6 1286.9,773.6 1324.5,736 1324.5,690.3 1356.9,657.9 1298.5,599.5 		"/>
		<polygon class="st0" points="738.8,1817.2 738.8,1803.6 716.9,1781.7 731.5,1767.2 716,1751.7 716,1646.1 701.7,1631.8 
			701.7,1594.5 735.6,1560.6 804,1560.6 804,1495 780.6,1495 780.6,1464.1 735.5,1464.1 717.1,1445.7 624.5,1445.7 612.7,1457.5 
			577.7,1457.5 565.7,1469.4 528.5,1469.4 507.5,1490.4 507.5,1507.8 507.5,1507.8 507.5,1548.2 525.9,1529.8 544.2,1529.8 
			507.5,1566.6 507.5,1703.4 555.8,1751.7 622.4,1751.7 622.4,1818.9 658.2,1854.7 658.2,2004.2 685.2,2031.2 708.7,2007.7 
			736.6,2007.7 781,2052 781,1979.6 828.8,1931.7 791.2,1894.2 791.2,1835 756.5,1835 		"/>
		<path class="st0" d="M1526,214.5h-48.4v-25.7l20.2-20.2h-52.3l-26.5-26.4h-31.8l-25.9-25.9H1330V81.4L1295.7,47h-77.3l-34.6,34.6
			V108l-6.8,6.8l15,15v20.5h20.5l17.8,17.8v11.8h-6.4l-15.5-15.5h-18.2l-10.2-10.2v-17.8l-12.3-12.3l-13.9,13.9h-79l-10.9,11h16.3
			l31.3,31.3h35.3l24.7,24.7v20.4l-13,13h-42.1l-10.3,10.3v23.1l26.6,26.6v17.1h26.6l27.3,27.3l-23.2,23.1l41,41h34.9l33.1-33.1
			v-25.7h29l25.9-25.9h42.3l25.2-25.3h26.6l16.4-16.4l-15.4-15.4V258h83.4l20.2-20.2L1526,214.5z M1287.6,277.9h-9.8l-4.3,4.4v8.8
			h-26.8v-11.4l12.1-12.1h28.9V277.9z"/>
		<path class="st0" d="M1422.4,265.3l15.4,15.4l-16.4,16.4h-26.6l-25.2,25.3h-42.3l-25.9,25.9h-29v25.6l-33,33.1h-34.9l-16.4,16.4
			l15.9,15.9l-17.3,17.3h-45.5l-24.2-24.2v-28.1l-30-30l9.8-9.8l-49.4-49.4h-34.4v-22.4L990.3,270h-23.2l-29.1-29.1h-20.6
			l-58.2,58.2V335l-21.9,21.9l22.8,22.8h37.1V407l47,47v30.3L966,506h28.3l15.3-15.3h29.5l23,23v31.1h34.4l34.1-34.1h12.3l23.9-23.9
			l0,0l-23.9,23.9h-12.3l-34.1,34.1v20.2l26.8,26.8h51.3l4.9-4.9l-4.9,4.9h6.6l22,22h32.9l24,24l38.4-38.4l58.5,58.5l42.1-42V569
			l56.9-56.9v-72.8l-25.5-25.5v-19.5h-6.7l-10.5,10.5h-11.7l-21,21h-20.7l-3.9,3.9h-8.6l10.3-10.3h12.2l26.7-26.7h12.1l10.1-10.1
			h11.7v-74.6l22.6-22.6h22V258h-52.7L1422.4,265.3z M916.2,400.2h-13.6v-13.6h13.7L916.2,400.2z M1286.2,516.2h-24.6v-16.3h24.6
			V516.2z"/>
		<path class="st0" d="M507.5,1507.8v-17.4l21-21h37.2l11.9-11.9h35l11.8-11.8h92.5l18.4,18.4h45.1l-24.5-24.5v-39.2l39.2-39.2V1273
			l21.6-21.6v-16.9l27.5-27.5h53.8v-18.4l-20.2-20.2l17.8-17.8v-22.7l-28-28h-21.7l-12.3,12.3h-25.5l-73.2,73.3h-34.5l-19.6,19.6
			l-18.6-18.6l-17.8,17.8l19.1,19.1l0,0l5.7,5.7v20.3l-77.2,77.2h-25.4l-15.3,15.3l-34.8,34.8v20.1l-19.4,19.4h-42.4l-10.8,10.8
			h-58.7l-26.8-26.8h-36.2v17.1l61.4,61.4v101l112,111.9v-172L507.5,1507.8z M460.2,1484.1h-16.4v-16.4h16.4V1484.1z"/>
		<polygon class="st0" points="1381.6,1553.9 1381.6,1543.9 1395.6,1529.9 1389.2,1529.9 1389.2,1515.2 1384.6,1510.6 
			1370.1,1510.6 1364,1516.7 1353.9,1516.7 1353.9,1511.8 1309.6,1511.8 1309.6,1522.7 1321.6,1534.8 1321.6,1561 1328.7,1568.1 
			1344.6,1568.1 1363.1,1586.6 1386.1,1586.6 1367.4,1568 		"/>
		<polygon class="st0" points="1333.3,1831 1324.6,1831 1297.9,1804.3 1306.5,1795.7 1316.2,1795.7 1306.5,1785.9 1306.5,1780.1 
			1315.1,1771.5 1315.1,1761.4 1265.9,1761.4 1265.9,1768.8 1247.6,1768.8 1238.6,1759.8 1225,1759.8 1225,1769.6 1238.6,1783.2 
			1238.6,1791.4 1244.1,1785.9 1238.6,1791.4 1238.6,1796.9 1238.6,1791.4 1231.8,1798.2 1239.3,1805.7 1233.2,1811.9 
			1245.4,1811.9 1279.3,1845.7 1291.6,1833.4 1312.3,1854.2 1312.3,1866.2 1322.2,1866.2 1329.2,1873.3 1343.8,1873.3 
			1343.8,1861.1 1349.5,1855.5 1349.5,1847.1 		"/>
		<polygon class="st0" points="126.2,1082.8 126.2,1070.9 135.4,1061.7 135.4,1050.2 124.2,1039.1 124.2,1025.8 67.1,1025.8 
			67.1,1040.4 98.5,1040.4 105.3,1047.2 121.7,1047.2 121.7,1058.9 108.8,1058.9 102.1,1065.6 89.1,1052.6 72.4,1052.6 80.8,1060.9 
			80.8,1069 91.6,1079.9 91.6,1087.8 78.4,1087.8 73.1,1093.1 67.5,1087.4 53.4,1087.4 53.4,1101.8 61.7,1101.8 87.4,1127.4 
			98.5,1116.3 98.5,1100.4 107.9,1091 124.2,1107.3 136.9,1107.3 136.9,1093.5 		"/>
		<polygon class="st0" points="64.2,1066.7 64.2,1047.7 58.2,1041.8 48,1041.8 44.9,1044.9 44.9,1050 42.3,1052.5 35.7,1052.5 
			26.8,1061.5 33.2,1061.5 33.2,1070.2 40.5,1077.6 51.4,1077.6 40.5,1066.7 40.5,1061.7 48,1054.3 48,1066.7 		"/>
		<polygon class="st0" points="39.9,624 39.9,632.6 34.6,638 34.6,644.2 39.4,649 45.2,643.2 50.7,643.2 50.7,637.9 58.9,637.9 
			58.9,628.7 54.2,624 		"/>
		<polygon class="st0" points="139.7,616.9 139.7,599.5 130.1,599.5 130.1,588.5 121.4,588.5 121.4,594 114.7,600.7 114.7,607.7 
			108.7,613.7 113.5,618.6 107.9,624.1 98.5,624.1 77.3,602.9 67.1,613.1 75.3,621.3 75.3,632.2 63,644.5 79.4,660.9 88.9,651.3 
			88.9,643.2 99.8,632.2 119,632.2 134.5,647.8 146.8,635.5 146.8,624 		"/>
		<polygon class="st0" points="88.8,222.4 88.8,246.1 96.1,246.1 106.6,256.6 116.2,247 116.2,234.9 123.9,227.3 123.9,236.7 
			132.6,236.7 132.6,230.2 143.5,230.2 151.6,238.3 144.6,245.3 144.6,252.4 138.1,252.4 138.1,266.1 123,266.1 111.4,277.7 
			97.1,277.7 83.8,291 83.8,282.5 69.8,282.5 60.3,272.9 73.9,259.2 73.9,247 67.1,247 67.1,238.8 72.5,238.8 72.5,230.6 
			64.3,230.6 64.3,222.4 		"/>
		<polygon class="st0" points="102.6,208.7 114.9,208.7 114.9,186.4 127.6,173.7 140.8,173.7 140.8,181.3 147.6,174.5 156.9,174.5 
			156.9,168.9 166.1,168.9 173.4,176.2 184.5,165.1 179,159.6 165.6,159.6 173.7,151.5 157.2,135 135.3,156.9 121.7,156.9 
			109.4,169.1 109.4,178.7 102.5,185.6 		"/>
	</g>
</g>
<g id="圖層_2" class="st1">
	<g id="圖層_4" class="st2">
		<path class="st3" d="M1253.7,202.6c3,2.8,6.9,6.9,8.6,9.6l-3.3,2.4c-0.5-0.9-1.1-1.7-1.7-2.5c-17.4,0.9-19.7,0.9-21.5,1.5
			c-0.3-1.3-0.8-2.5-1.3-3.7c1-0.4,2-1.1,2.7-1.9c2.7-2.7,5.1-5.6,7-8.9l3.9,1.7c-2.1,3-4.5,5.8-7.1,8.4l13.4-0.4
			c-1.3-1.4-2.6-2.8-3.8-4L1253.7,202.6z M1236.9,215.8h22.1v14.4h-4.2v-1.6h-13.9v1.7h-4L1236.9,215.8z M1240.9,219.5v5.2h13.9
			v-5.2H1240.9z"/>
		<path class="st3" d="M1279.7,220.7l0.7,3.5c-4.6,2-9.7,4-13.5,5.5l-1.7-4l0,0c2.2-0.7,5.4-1.8,8.7-2.9v-11.6h-7.6v-3.9h7.6v-7.2
			h4.1v21.3L1279.7,220.7z M1290.4,225.4c1.2,0,1.4-1.5,1.6-7.4c1.1,0.8,2.4,1.4,3.7,1.8c-0.4,6.8-1.3,9.4-5,9.4h-3.9
			c-3.6,0-4.7-1.4-4.7-5.9v-23.2h4.1v7.1h8.6v3.9h-8.6v12.2c0,1.8,0.2,2.1,1.2,2.1H1290.4z"/>
		<path class="st3" d="M1315.4,207.8v3.7h10.5v11c0,1.9-0.4,3-1.8,3.6s-3.2,0.7-5.8,0.7c-0.2-1.3-0.7-2.6-1.3-3.8
			c1.6,0.1,3.6,0.1,4.1,0.1s0.7-0.1,0.7-0.6v-7.2h-6.5V230h-4.1v-14.7h-6.1v11.5h-3.9v-15.3h10v-3.7h-12.7V204h13.1
			c-0.5-1.2-1.1-2.5-1.7-3.6l3.9-1.2c0.8,1.5,1.9,3.5,2.5,4.8h12.1v3.8H1315.4z"/>
		<path class="st3" d="M1027.1,245.3c-0.3-0.9-0.9-2-1.5-3.2v15.3h-3.6v-11.5c-0.6,2-1.4,3.8-2.4,5.6c-0.5-1.4-1.1-2.7-1.8-4
			c1.8-2.6,3.3-7.2,4.1-11.1h-3.6v-3.6h3.7v-6.1h3.6v6.1h2.7v3.6h-2.7v0.7c1,1.2,3.3,4.5,3.8,5.3L1027.1,245.3z M1033.8,226.9h3.5
			v13.8c0,6.3-1.1,13.1-7.2,16.9c-0.7-1-1.6-2-2.5-2.8c3.7-1.8,5.2-4.9,5.8-8.2c-1.2,1.1-2.4,2.3-3.5,3.2l-1.9-3.7
			c1.4-0.9,3.6-2.4,5.8-3.9c0-0.6,0-1.1,0-1.7v-1.9l-2.4,1.1c-0.6-2.5-1.4-4.9-2.4-7.1l2.8-1.2c0.8,1.6,1.4,3.3,2,5L1033.8,226.9z
			 M1045.2,253.6c0.5,0,0.7-0.9,0.8-3.8c1,0.7,2.1,1.2,3.2,1.5c-0.4,4.1-1.2,5.8-3.7,5.8h-2.6c-2.8,0-3.6-1.1-3.6-5.2v-25h3.7v10.4
			c0.9-1.9,1.6-3.9,2.2-6l3.6,1.4c-1.2,2.4-2.5,5.1-3.6,6.8l-2.2-1v3.2l0.8-0.8c1.9,1.8,3.6,3.8,5.3,5.9l-2.5,2.4
			c-1.1-1.6-2.3-3.1-3.6-4.5v7.2c0,1.4,0.1,1.7,0.6,1.7L1045.2,253.6z"/>
		<path class="st3" d="M1080.2,228.1v29.4h-3.8v-1.2h-20.5v1.2h-3.7v-29.4H1080.2z M1076.4,252.8v-21.2h-20.5v21.2H1076.4z
			 M1067.5,248.4c-0.1,0.8-0.1,1.6,0,2.4c-5.6,1.4-6.5,1.7-7.1,2c-0.2-0.7-0.5-1.4-0.9-2c0.7-0.3,1.2-1,1.1-1.8v-1.2
			c-0.9,0.3-1.8,0.6-2.6,0.9c-0.6-0.8-1.2-1.5-1.9-2.2c2.1-0.4,4.2-1.1,6.2-2h-3.7v-4.7h15.1v4.7h-7c-1,0.8-2.1,1.5-3.3,2v2.8
			L1067.5,248.4z M1075.2,238.9H1057v-2.2h7.3v-1.3h-5.8v-2.1h5.8V232h3.5v1.4h6v2.1h-6v1.3h7.4L1075.2,238.9z M1061.9,242.8h8.5
			v-1.3h-8.5V242.8z M1075.6,246.4c-0.9,0.6-1.8,1.2-2.8,1.7c1,0.7,2,1.4,2.9,2.2l-2.5,1.5c-2.4-2.1-5.1-4-7.8-5.7l2.3-1.3
			c0.9,0.6,2,1.2,3,1.9c0.9-0.6,1.7-1.2,2.5-1.9L1075.6,246.4z"/>
		<path class="st3" d="M966.5,392.9c-0.8,2.4-1.9,4.6-3.3,6.7c-0.8-0.6-1.7-1.2-2.5-1.8c1.2-1.8,2.2-3.7,2.9-5.8L966.5,392.9z
			 M971.1,391v10.9h-3.8V391h-6.1v-3.3h6.1v-2.5h-6.3V382h3.2c-0.2-1.2-0.6-2.3-1-3.4l2.7-0.6h-4.4v-3.2h5.6c-0.3-0.9-0.7-1.8-1-2.6
			l3.9-1c0.5,1.1,1.1,2.4,1.5,3.5h4.7v3.2h-4.1l2.7,0.5c-0.5,1.2-1,2.5-1.5,3.5h3.4v3.2h-5.6v2.5h5.1v3.2L971.1,391z M966.4,378
			c0.5,1.1,0.8,2.2,1.1,3.4l-2.4,0.7h4.7c0.5-1.3,1-2.7,1.4-4.1H966.4z M991.3,386h-3v16h-3.8v-16.1h-3v0.4c0,4.8-0.4,11.6-3.2,15.8
			c-0.9-0.9-1.9-1.7-3-2.3c0.6-1,1.1-2.1,1.5-3.2l-2.4,1.4c-0.7-1.7-1.6-3.3-2.6-4.9l2.6-1.4c0.9,1.4,1.7,2.8,2.5,4.3
			c0.8-3.2,1.1-6.4,1-9.7v-11.6c3.4-0.6,6.7-1.5,9.9-2.8l3,2.9c-3,1.1-6.1,1.9-9.3,2.5v5.1h9.9L991.3,386z"/>
		<path class="st3" d="M1024.2,381.8h-4.2v15.7c0,2.1-0.4,3.2-1.7,3.9s-3.3,0.7-5.9,0.7c-0.3-1.4-0.7-2.8-1.3-4
			c1.7,0.1,3.6,0.1,4.2,0.1s0.8-0.2,0.8-0.7v-15.7h-3.6c-0.8,1.9-1.9,3.8-3.1,5.5c-1-0.9-2.1-1.7-3.3-2.4c0.8-1,1.5-2,2.1-3.1h-4
			v20.3h-3.9v-20.3h-0.3c-0.8,2-1.9,3.8-3.1,5.6c-1.1-0.9-2.3-1.7-3.6-2.4c2.6-3.1,4.6-8.3,5.6-13.4l4.1,0.8
			c-0.4,1.9-0.9,3.7-1.6,5.5h7.4v2.3c1.2-2.8,2.2-5.7,2.8-8.6l3.9,0.8c-0.5,1.9-1,3.8-1.6,5.5h10.4L1024.2,381.8z"/>
		<path class="st3" d="M799.1,495.4h-6.8v-3.6h6.8V489h3.9v2.9h3.5v3.6H803v3.1h-3.8L799.1,495.4z M795.1,499.6h23.6v20h-3.9v-1.4
			h-16v1.4h-3.7L795.1,499.6z M798.9,503.1v4h6v-4H798.9z M804.9,514.7v-4.1h-6v4.1H804.9z M821.4,491.8v3.6h-7v3.1h-3.9v-3.1h-3.2
			v-3.6h3.2V489h3.9v2.9L821.4,491.8z M814.9,503.1h-6.2v4h6.2V503.1z M814.9,514.7v-4.1h-6.2v4.1H814.9z"/>
		<path class="st3" d="M836.7,512.4c-2.7,3-6.2,5.2-10.1,6.3c-0.7-1.2-1.6-2.3-2.6-3.2c3.7-0.8,7.5-2.4,9.5-4.3L836.7,512.4z
			 M841.6,510.9v8.7h-4v-8.7H825v-3.4h12.5v-2.1h4v2.1h12.7v3.4L841.6,510.9z M834,493.8h-8.8v-3.4H854v3.4h-9.3v2h7.4v9.1H827v-9.1
			h7V493.8z M830.7,501.8h3.3V499h-3.3V501.8z M841.1,493.8h-3.4v2h3.4V493.8z M837.6,501.8h3.4V499h-3.4V501.8z M845.6,511
			c3.2,1.5,6.3,3.3,9.2,5.3l-3,2.5c-2.8-2.1-5.8-4-8.9-5.7L845.6,511z M844.6,499v2.8h3.6V499L844.6,499z"/>
		<path class="st3" d="M700.6,664c3,2.8,6.9,6.8,8.6,9.6l-3.3,2.4c-0.5-0.9-1.1-1.7-1.7-2.5c-17.4,0.8-19.7,0.9-21.5,1.5
			c-0.3-1.3-0.8-2.5-1.3-3.7c1.1-0.4,2-1,2.7-1.9c2.7-2.7,5-5.7,6.9-8.9l3.9,1.7c-2.1,3-4.5,5.8-7.1,8.3l13.4-0.4
			c-1.3-1.5-2.6-2.8-3.8-4L700.6,664z M683.8,677.2h22.1v14.3h-4.2v-1.6h-13.9v1.7h-4L683.8,677.2z M687.8,680.9v5.2h13.9v-5.2
			H687.8z"/>
		<path class="st3" d="M741.2,666.6V683h-4.1v-1.6h-7.4v10.2h-4.1v-10.2h-7.4v1.8h-3.9v-16.5h11.3V661h4.1v5.7L741.2,666.6z
			 M725.5,677.5v-7h-7.4v7H725.5z M737.1,677.5v-7h-7.4v7H737.1z"/>
		<path class="st3" d="M762.3,669.2v3.7h10.6v11c0,1.9-0.4,3-1.8,3.6s-3.2,0.7-5.8,0.7c-0.2-1.3-0.7-2.6-1.3-3.8
			c1.6,0.1,3.6,0.1,4.1,0.1s0.7-0.1,0.7-0.6v-7.2h-6.5v14.8h-4.1v-14.8h-6.1v11.5h-3.9v-15.3h10v-3.7h-12.8v-3.8h13.1
			c-0.5-1.2-1.1-2.5-1.7-3.6l3.9-1.2c0.8,1.5,1.9,3.5,2.5,4.8h12.1v3.8L762.3,669.2z"/>
		<path class="st3" d="M529.1,807.8h-18.7v-3h4.4c-0.2-0.6-0.4-1.2-0.7-1.7l1.9-0.5h-4.7v-2.9h6.9c-0.2-0.5-0.4-1-0.7-1.4l3.1-1.1
			c0.5,0.8,0.9,1.7,1.2,2.5h6.8v2.9h-4.2l1.9,0.4c-0.4,0.7-0.8,1.3-1.2,1.9h3.7l-0.1-0.1c2.9-1.7,5.5-4,7.4-6.7l3.7,1.4
			c-2.3,3.1-5.1,5.8-8.4,7.9c-0.7-0.8-1.5-1.6-2.4-2.3L529.1,807.8z M521.7,823.4v4.7H518v-4.7h-6.7v-3.1h6.7v-1.7h-5.3V809h14.7
			v9.6h-5.7v1.7h6.7v3.1L521.7,823.4z M516.2,812.7h7.4v-1.4h-7.4V812.7z M516.2,816.4h7.4v-1.5h-7.4V816.4z M517.2,802.6
			c0.4,0.7,0.8,1.4,1,2.2h3.4c0.3-0.7,0.7-1.5,1-2.2H517.2z M541,817.1c-2.7,4.5-6.5,8.2-11.2,10.6c-0.7-1.2-1.7-2.2-2.7-3.2
			c4.1-1.9,8.1-5.1,10.2-8.9L541,817.1z M540.4,808.4c-2.6,3.3-5.8,6.1-9.4,8.2c-0.8-1.1-1.7-2-2.8-2.8c3.3-1.7,6.2-4.1,8.5-7
			L540.4,808.4z"/>
		<path class="st3" d="M554.9,798.8c-0.9,2.1-2,4.2-3.2,6.2v23H548v-17.6c-1,1.2-2,2.4-3.2,3.5c-0.6-1.4-1.3-2.8-2.1-4.1
			c3.7-3.4,6.6-7.6,8.5-12.2L554.9,798.8z M567.8,823.9c1.7,0,1.9-1.4,2.2-6.8c1,0.8,2.2,1.3,3.4,1.6c-0.4,6.3-1.4,8.6-5.4,8.6h-5.5
			c-4,0-5.2-1.3-5.2-5.8v-23.5h3.8v8.3h11.4v3.7h-11.4v11.5c0,1.9,0.2,2.3,1.8,2.3H567.8z"/>
		<path class="st3" d="M439.4,969.1h-7c2,1.5,4,3.2,5.8,5l-3.5,1.6c-0.4-0.4-0.8-0.9-1.3-1.5c-16.1,0.6-18,0.7-19.4,1.1
			c-0.2-0.8-0.8-2.6-1.2-3.6c0.7-0.2,1.4-0.5,2-1c0.8-0.5,1.5-1,2.2-1.6h-7.1v-2.9h29.6L439.4,969.1z M413.7,956.7h-3.4v-7h12.4
			v-1.1h-10.2v-2.8h24.2v2.8h-10.2v1.1H439v7h-3.6v-4.5h-8.9v8.6h-3.8v-8.6h-9V956.7z M412.8,958.8c2-0.5,4.7-1.3,7.6-2.1
			c-2-0.9-4.1-1.7-6.2-2.4l1.4-2.1c2.1,0.6,4.2,1.3,6.3,2.2l-1.4,2.3l1.1-0.3l0.4,2.5c-2.7,1-5.6,2.1-7.9,3L412.8,958.8z
			 M435.7,964.8h-22V962h22V964.8z M430.1,971.3c-0.7-0.6-1.4-1.2-2.1-1.7l1.3-0.6h-7.2c-1,0.9-2.1,1.8-3.1,2.6L430.1,971.3z
			 M435.2,954.6c-2,0.8-4,1.5-6.1,2c2.4,0.7,4.8,1.5,7.1,2.5l-1.2,2.7c-2.6-1.2-5.3-2.2-8-3l1.1-2.2l-1.2-2c2.2-0.6,4.4-1.4,6.5-2.4
			L435.2,954.6z"/>
		<path class="st3" d="M454.2,964.9c-0.6-1.1-1.6-2.7-2.6-4.1v14.7h-3.8v-13.1c-1,2.7-2.4,5.3-4.2,7.6c-0.5-1.3-1.2-2.6-1.9-3.8
			c2.6-3.2,4.4-6.9,5.5-10.8h-4.6v-3.7h5.2v-6.8h3.8v6.8h4.3v3.7h-4.3v0.5c1,1,4.2,4.7,5,5.6L454.2,964.9z M467,955.4
			c1.4,4.5,3.6,9,6,11.8c-1.1,0.9-2.1,1.9-2.9,3c-1.6-2.4-2.9-5-3.9-7.8v13.1h-3.9v-13.3c-1.3,3.2-3.2,6.2-5.6,8.8
			c-0.6-1.3-1.3-2.5-2.2-3.6c3.3-3.4,5.8-7.5,7.2-12h-4.8v-3.7h5.4v-6.8h3.9v6.8h5.8v3.7H467z"/>
		<path class="st3" d="M651,1120.2c-0.3,0.5-0.6,1-0.9,1.4h7.2v2.8h-20.2c0,0.5-0.1,1-0.2,1.5h6.1c0,0,0,0.8-0.1,1.2
			c-0.3,3.2-0.7,4.8-1.3,5.5c-0.5,0.6-1.3,0.9-2.1,0.9c-1.1,0.1-2.3,0.1-3.4,0c-0.1-1-0.3-1.9-0.8-2.8c0.8,0.1,1.6,0.1,2.5,0.1
			c0.3,0.1,0.7,0,0.9-0.3c0.3-0.6,0.5-1.3,0.6-2h-3.1c-1,2.4-2.8,4.1-6.7,5.2c-0.4-0.9-1-1.8-1.8-2.6c2.5-0.6,3.9-1.5,4.8-2.7h-3.4
			v-2.6h4.5c0.1-0.5,0.2-1,0.2-1.5h-5.2v-2.8h7.6c-0.2-0.5-0.5-1-0.8-1.5l2.5-0.3h-6.1v-6.6h22.5v6.6h-5.8L651,1120.2z
			 M657.5,1105.2v2.8h-12.6v1.3h10.3v2.7H631v-2.7h10v-1.3h-12.3v-2.8h12.3v-1.8h4v1.8L657.5,1105.2z M635.4,1117.4h15.1v-1.6h-15
			L635.4,1117.4z M639.2,1119.8c0.4,0.5,0.8,1.2,1,1.8h5.9c0.3-0.6,0.5-1.3,0.7-1.8H639.2z M644.3,1125.6H656v8.3h-3.6v-0.8h-4.7
			v0.8h-3.4L644.3,1125.6z M647.7,1128.2v2.2h4.7v-2.2H647.7z"/>
		<path class="st3" d="M688.5,1125.8c-1.1,1.4-2.4,2.6-3.8,3.6c0.7,0.6,1.6,1,2.5,1c0.8,0,1-0.6,1.2-2.4c0.8,0.7,1.8,1.2,2.8,1.5
			c-0.5,3.7-1.6,4.4-4.2,4.4c-2.1,0-4.2-0.9-5.6-2.5c-2.1,1.1-4.4,1.9-6.7,2.5c-0.5-1.1-1.2-2.1-1.9-3.1c2.3-0.5,4.5-1.2,6.6-2.1
			c-0.7-1.2-1.2-2.5-1.6-3.9h-6.4v1.2l4.9-0.3v2.6l-4.9,0.4v1.7c0,1.7-0.4,2.5-1.6,2.9c-1.8,0.5-3.6,0.6-5.4,0.5
			c-0.2-1-0.6-2.1-1.1-3c1.4,0.1,3.2,0.1,3.7,0s0.7-0.1,0.7-0.6v-1.3c-2.3,0.2-4.5,0.3-6.3,0.5l-0.3-3c1.8-0.1,4.1-0.2,6.6-0.3v-1.4
			h-6.5v-2.8h6.5v-1.3c-1.7,0.2-3.5,0.3-5.1,0.3c-0.2-0.8-0.5-1.6-0.8-2.3c3.9-0.2,7.7-0.6,11.5-1.3h-12v-3h12.5v-1.2h-9.3v-2.7h9.3
			v-1.2h-11v-2.9h5.8c-0.4-0.7-0.8-1.4-1.2-2l3.4-1.1c0.8,0.9,1.5,1.9,2,3h6.6c0.6-1,1.1-2.1,1.4-3.2l4.3,0.8
			c-0.6,0.8-1.2,1.7-1.7,2.3h5.6v2.9h-11.3v1.2h9.5v2.7h-9.5v1.2h12.7v3h-6.5c1.8,0.7,3.6,1.6,5.2,2.8l-1.7,1.9h3.2v2.8h-4.9
			L688.5,1125.8z M677,1122c-0.3-1.4-0.4-2.8-0.5-4.3h3.7c0.1,1.4,0.2,2.9,0.5,4.3h5.4c-1.5-1-3.1-1.9-4.8-2.6l2-2.1h-9.7l2.1,2.2
			c-1.3,0.3-2.9,0.6-4.5,0.8v1.7L677,1122z M681.7,1124.8c0.3,0.7,0.6,1.4,1,2.1c0.9-0.6,1.7-1.3,2.4-2.1H681.7z"/>
		<path class="st3" d="M367.5,1221c3,2.8,6.9,6.8,8.6,9.6l-3.3,2.4c-0.5-0.9-1.1-1.7-1.7-2.5c-17.4,0.8-19.7,0.9-21.5,1.5
			c-0.3-1.3-0.8-2.5-1.3-3.7c1-0.4,2-1.1,2.7-1.9c2.7-2.7,5-5.7,7-8.9l3.9,1.7c-2.1,3-4.5,5.8-7.1,8.4l13.4-0.4
			c-1.3-1.4-2.6-2.8-3.8-4L367.5,1221z M350.7,1234.2h22.1v14.3h-4.2v-1.6h-13.9v1.7h-4V1234.2z M354.7,1237.9v5.2h13.9v-5.2H354.7z
			"/>
		<path class="st3" d="M396.2,1224.3c-0.1,0.9-0.3,1.7-0.5,2.5h12v17.8c0,1.9-0.5,2.8-1.8,3.3s-3.2,0.6-5.9,0.6
			c-0.3-1.2-0.7-2.3-1.2-3.3c1.6,0.1,3.6,0.1,4.1,0.1s0.8-0.2,0.8-0.7v-14.2h-6.3l3.3,0.7c-0.5,1.2-0.9,2.4-1.4,3.4h2.4v3h-5.5v2.1
			h6.2v3.1h-6.2v4.8h-3.7v-4.8h-6.1v-3.1h6.1v-2.1h-5.4v-3h2.5c-0.3-1.1-0.8-2.2-1.3-3.3l3.1-0.8c0.6,1.1,1.1,2.3,1.5,3.6l-1.7,0.5
			h4.8c0.5-1.3,0.9-2.7,1.2-4.1h-12.1v18.1h-3.9v-21.7h10.6c0.1-0.8,0.3-1.6,0.4-2.5h-12.2v-3.6h12.6c0.1-1,0.1-1.9,0.2-2.8l4.3,0.4
			c-0.1,0.8-0.2,1.6-0.3,2.3H409v3.6H396.2z"/>
		<path class="st3" d="M657.4,1349.3v3.3h-28.9v-3.3h12.6c-0.3-0.8-0.5-1.6-0.8-2.3l4-1c0.4,1,0.9,2.2,1.3,3.3L657.4,1349.3z
			 M656.7,1373.3c0,1.7-0.4,2.4-1.7,2.9c-1.7,0.4-3.5,0.5-5.2,0.4c-0.3-1-0.7-1.9-1.1-2.8h-9.4v1.4h-3.6v-8.7h14.2v7.3h-0.5
			c1.2,0,2.3,0,2.6,0s0.7-0.1,0.7-0.6v-7.9h-19.6v11.5h-3.8v-14.7h27.2V1373.3z M653.5,1360.9h-20.7v-7h20.7V1360.9z M649.4,1356.5
			h-12.7v1.8h12.7V1356.5z M646.5,1369.3h-7.2v1.9h7.2V1369.3z"/>
		<path class="st3" d="M690.8,1375.4h-10.5v1.5h-3.4V1358c-0.6,0.9-1.3,1.8-2,2.7c-0.6-1.1-1.3-2.2-2.1-3.2c0.7-0.9,1.4-1.8,2-2.8
			h-6.4c-1,6.3-2.6,11.9-5.2,15.8c-1-0.8-2.1-1.5-3.2-2.2c2.3-3.3,3.8-8.1,4.7-13.5h-3.3v-3.7h3.9c0.2-1.6,0.3-3.2,0.5-4.8l3.7,0.3
			c-0.1,1.5-0.3,3-0.5,4.5h6.4v2.8c1.3-2.4,2.4-4.9,3.2-7.5l3.3,0.9c-0.5,1.7-1.2,3.4-1.9,5h4.4c-0.5-1.6-1.1-3.1-1.9-4.6l3.3-1
			c0.8,1.4,1.5,2.9,2,4.5l-3,1.1h5.9v3.4H687v3.2h3.4v3.3H687v3.2h3.4v3.3H687v3.2h3.8L690.8,1375.4z M673.7,1364.1
			c1.1,3.5,2,7,2.7,10.6l-3.1,1.1c-0.1-0.7-0.2-1.4-0.4-2.2c-6.1,1.1-7.3,1.4-8,1.8c-0.3-1.1-0.7-2.2-1.1-3.2
			c0.7-0.2,1.2-1.2,1.8-2.5c1.6-3.7,2.8-7.5,3.5-11.5l3.7,0.8c-0.5,2.1-1.2,4.1-1.9,6.2L673.7,1364.1z M672.3,1370.6
			c-0.4-1.8-0.9-3.7-1.4-5.3c-0.8,2.1-1.7,4.1-2.5,5.9L672.3,1370.6z M680.3,1355.7v3.2h3.2v-3.2H680.3z M683.5,1362.2h-3.2v3.2h3.2
			V1362.2z M680.3,1371.8h3.2v-3.2h-3.2V1371.8z"/>
		<path class="st3" d="M710.5,1354.5v3.7H721v11c0,1.9-0.4,3-1.8,3.6s-3.2,0.7-5.8,0.7c-0.3-1.3-0.7-2.6-1.3-3.8
			c1.6,0.1,3.6,0.1,4.1,0.1s0.7-0.1,0.7-0.6v-7.1h-6.5v14.8h-4.1V1362h-6.1v11.5h-3.9v-15.3h10v-3.7h-12.7v-3.8h13.1
			c-0.5-1.2-1.1-2.5-1.7-3.6l3.9-1.2c0.8,1.5,1.9,3.5,2.5,4.8h12.1v3.8L710.5,1354.5z"/>
		<path class="st3" d="M606,1626.4h-5.5v7.2h-3.9v-7.2h-5.2c-0.6,2.8-2.2,5.4-6.3,7.2c-0.7-1.1-1.6-2.1-2.6-2.9
			c2.8-1.2,4.1-2.7,4.8-4.3h-4.4v-3.3h5v-3.4h-4.2v-3.2h3.8c-0.3-0.8-0.8-1.7-1.2-2.5l2.8-0.8h-6.4v3.4c0,5.3-0.5,12.7-3.7,17.3
			c-1-0.9-2.2-1.6-3.4-2.3c3-4.1,3.2-10.3,3.2-15v-12.1h26v8.8h-6.3l3.7,1c-0.5,0.8-1.1,1.6-1.7,2.4h4.5v3.2h-4.6v3.4h5.5V1626.4z
			 M582.7,1609.8h17.9v-2.2h-17.8L582.7,1609.8z M589.9,1613.1c0.5,0.8,1,1.6,1.4,2.5l-2.7,0.9h7.9c0.5-1.1,1-2.2,1.4-3.4H589.9z
			 M596.5,1623.1v-3.4h-4.9v3.4H596.5z"/>
		<path class="st3" d="M628.8,1623.7c3.1,2.7,6.7,4.8,10.6,6.2c-1.1,1-2,2.1-2.8,3.4c-4.1-1.8-7.7-4.4-10.8-7.6v8h-4v-7.8
			c-3,3.2-6.6,5.7-10.5,7.4c-0.8-1.2-1.7-2.3-2.7-3.3c3.8-1.3,7.3-3.4,10.3-6.2h-6.6v-12.5h9.5v-1.9h-12.4v-3.6h12.3v-2.7h4v2.7
			h12.6v3.6h-12.6v1.9h10v12.5L628.8,1623.7z M616,1616h5.8v-1.9H616V1616z M616,1620.8h5.8v-2H616V1620.8z M625.8,1614.1v1.9h6
			v-1.9H625.8z M631.8,1618.8h-6v2h6V1618.8z"/>
		<path class="st3" d="M891.7,1406.6c3,2.8,6.9,6.8,8.6,9.6l-3.3,2.4c-0.5-0.9-1.1-1.7-1.7-2.5c-17.4,0.9-19.7,0.9-21.5,1.5
			c-0.3-1.3-0.8-2.5-1.3-3.7c1-0.4,2-1.1,2.7-1.9c2.7-2.7,5-5.7,7-8.9l3.9,1.7c-2.1,3-4.5,5.8-7.1,8.3l13.4-0.4
			c-1.3-1.4-2.6-2.8-3.8-4L891.7,1406.6z M875,1419.8h22.1v14.3h-4.2v-1.6H879v1.7h-4V1419.8z M879,1423.5v5.2h13.9v-5.2H879z"/>
		<path class="st3" d="M923.7,1424.4c3.1,2.7,6.7,4.8,10.6,6.2c-1.1,1-2,2.1-2.8,3.4c-4.1-1.8-7.7-4.4-10.7-7.6v8h-4v-7.8
			c-3,3.2-6.6,5.7-10.5,7.4c-0.8-1.2-1.7-2.3-2.7-3.3c3.8-1.3,7.3-3.4,10.3-6.2h-6.6v-12.5h9.5v-1.9h-12.4v-3.6h12.3v-2.7h4v2.7
			h12.6v3.6h-12.6v1.9h10v12.5L923.7,1424.4z M910.9,1416.7h5.8v-1.9h-5.8V1416.7z M910.9,1421.4h5.8v-2h-5.8V1421.4z M920.7,1414.8
			v1.9h6v-1.9H920.7z M926.7,1419.4h-6v2h6V1419.4z"/>
		<path class="st3" d="M1087.4,934.2h2.8v3.7h-2.8v2.8h-3.5l3.5,1.1c-0.7,1.4-1.5,2.8-2.4,4.1v16.1h-3.9v-11.2
			c-0.9,1-1.9,1.9-2.8,2.6c-1-1-2.1-1.9-3.2-2.8c3.6-2.6,6.5-6.1,8.4-10.1v-2.7h-7.3v-3.7h7.3v-2.9h3.9V934.2z M1100.8,957.8
			c1.3,0,1.5-0.8,1.7-4.8c1.1,0.7,2.3,1.2,3.5,1.5c-0.4,5.3-1.5,6.9-4.9,6.9h-5c-3.9,0-5-1.2-5-5.2v-15.1h3.9v4.7h10.1v3.6h-10.1
			v6.8c0,1.4,0.2,1.6,1.6,1.6L1100.8,957.8z M1094.3,937.8h-3v-3.7h3v-2.9h3.9v2.9h7.2v3.7h-7.2v2.8h-3.9V937.8z"/>
		<path class="st3" d="M1117.5,949c-0.7,2.3-1.6,4.5-2.8,6.5c0.5,0.4,1.2,0.8,2,1.3c2.2,1.4,5.3,1.5,9.1,1.5c4.5,0,8.9-0.3,13.3-0.8
			c-0.5,1.2-0.9,2.5-1.1,3.8c-2.7,0.2-8.6,0.4-12.3,0.4c-4.4,0-7.1-0.3-9.5-1.7c-1.3-0.8-2.5-1.9-3.2-1.9s-1.9,2.2-2.8,4.1l-2.4-3.5
			c0.9-1.1,1.9-2.2,3.1-3c1-1.4,1.8-2.8,2.3-4.4h-4c0.8-1.5,1.8-3.5,2.8-5.4h-3.2v-3.1h8.2c-0.8,1.8-1.8,3.8-2.7,5.6h0.8l0.6-0.2
			L1117.5,949z M1114.9,936.1h-5.9v-3.2h5.9v-1.6h3.9v1.6h4.2v3.2h-4.2v1.7h-3.9L1114.9,936.1z M1113.5,937.3
			c0.8,1.2,1.7,2.7,2.2,3.7l-3.2,1.5c-0.5-1-1.5-2.7-2.2-3.9L1113.5,937.3z M1125.5,957.7V956h-8.4v-2.8h8.4V952h-6.9v-9.3h6.9v-1.2
			h-7.8V939h7.8v-1.4h3.6v1.4h8.2v2.6h-8.2v1.2h7.2v9.3h-7.2v1.2h8.7v2.8h-8.7v1.6L1125.5,957.7z M1122.2,946.3h3.3V945h-3.3V946.3z
			 M1125.5,949.8v-1.3h-3.3v1.3H1125.5z M1128.5,936.1h-4.4v-3.2h4.4v-1.6h3.9v1.6h5.7v3.2h-5.7v1.2h-3.9V936.1z M1129.1,945v1.3
			h3.5V945L1129.1,945z M1132.6,948.4h-3.5v1.3h3.5V948.4z"/>
		<path class="st3" d="M874.1,924c-0.1,0.9-0.3,1.7-0.5,2.5h12v17.8c0,1.9-0.5,2.8-1.8,3.3s-3.2,0.5-5.9,0.5
			c-0.3-1.2-0.7-2.3-1.2-3.3c1.6,0.1,3.6,0.1,4.1,0.1s0.8-0.2,0.8-0.7V930h-6.3l3.3,0.7c-0.5,1.2-0.9,2.4-1.4,3.4h2.4v3h-5.5v2.1
			h6.2v3.1h-6.2v4.8h-3.7v-4.8h-6.1v-3.1h6.1v-2.1H865v-3h2.5c-0.4-1.1-0.8-2.2-1.3-3.3l3.1-0.8c0.6,1.1,1.1,2.3,1.5,3.6l-1.7,0.5
			h4.8c0.5-1.3,0.9-2.7,1.2-4.1h-12.1v18.1h-3.9v-21.7h10.6c0.1-0.8,0.3-1.6,0.4-2.5h-12.2v-3.6h12.6c0.1-1,0.1-1.9,0.2-2.8l4.3,0.4
			c-0.1,0.8-0.2,1.6-0.3,2.4h12.2v3.6H874.1z"/>
		<path class="st3" d="M897.8,936v7.8c0,1.9-0.4,2.8-1.5,3.4s-2.7,0.7-5,0.7c-0.2-1.2-0.6-2.4-1.1-3.5c1.3,0,2.7,0,3.1,0
			s0.6-0.2,0.6-0.6V937l-3.3,0.8l-1-3.7c1.2-0.3,2.7-0.6,4.3-1v-5.8h-3.9v-3.6h3.9v-6.2h3.8v6.2h3.4v3.6h-3.4v4.8l2.4-0.6l0.5,3.6
			L897.8,936z M918.5,932.7c-1,3.6-2.9,6.9-5.6,9.5c2.4,1.2,4.9,2,7.6,2.5c-1,1.1-1.8,2.3-2.5,3.6c-3-0.7-5.9-1.9-8.5-3.5
			c-2.8,1.6-5.8,2.8-8.9,3.5c-0.5-1.3-1.1-2.5-1.9-3.6c2.6-0.4,5.2-1.3,7.6-2.5c-1.8-1.8-3.4-4-4.5-6.3l1.2-0.4h-1.9v-3.6h14.2
			l0.7-0.2L918.5,932.7z M902.2,931.3c-0.7-1-1.6-2-2.6-2.8c3.9-1.8,4.4-4.1,4.4-6.4v-3.5h11.6v7.1c0,1,0,1.3,0.5,1.3h1.8
			c0.6,0,1.2-0.1,1.8-0.2c0.1,1,0.2,2.3,0.3,3.2c-0.7,0.2-1.4,0.3-2.1,0.2h-2.2c-3.2,0-3.9-1.4-3.9-4.7v-3.5h-4.2
			C907.5,925.6,906.6,929.2,902.2,931.3L902.2,931.3z M905.6,935.4c1,1.8,2.4,3.3,4,4.6c1.6-1.3,2.8-2.8,3.8-4.6H905.6z"/>
		<path class="st3" d="M1340.1,487.8v3.5H1311v-3.5h6.1v-16.9h16.8v16.9H1340.1z M1315.4,472.8h-3.8v-7.7h12.3
			c-0.3-1-0.7-1.9-1.1-2.8l3.8-0.9c0.7,1.2,1.2,2.4,1.6,3.7h11.4v7.7h-4v-4.2h-20.2L1315.4,472.8z M1320.8,474.3v2.3h9v-2.3H1320.8z
			 M1329.8,479.7h-9v2.4h9V479.7z M1320.8,487.8h9v-2.5h-9V487.8z"/>
		<path class="st3" d="M1349.7,466.3h-5.9v-3.2h5.9v-1.5h3.9v1.5h4.2v3.2h-4.2v1.4h-3.9V466.3z M1371.7,488.4c0,1.6-0.3,2.4-1.3,3
			s-2.3,0.6-4.2,0.6c-0.2-1-0.6-1.9-1-2.9l-1.3,1.8c-1.3-1.2-2.7-2.3-4.1-3.3v4h-3v-3.8c-1.5,1.4-3.3,2.5-5.2,3.3
			c-0.6-0.8-1.3-1.6-2-2.3c1.9-0.5,3.6-1.3,5.2-2.4h-3.6v-6.4h5.6v-0.9h-6.4v-2h6.4v-1h-8v16h-3.6v-24h12v7.7h2.2v-7.7h12.3
			L1371.7,488.4z M1348.8,470.4v0.9h4.9v-0.9H1348.8z M1353.7,474v-1h-4.9v1H1353.7z M1353.7,484.5h1.6c-0.3-0.6-0.7-1.3-1.1-1.9
			l1.4-0.5c0.4,0.6,0.8,1.1,1.2,1.8l-1.3,0.6h1.8V482h-3.5L1353.7,484.5z M1373,463.1v3.2h-5.7v1.4h-3.9v-1.4h-4.4v-3.2h4.4v-1.5
			h3.9v1.5L1373,463.1z M1362.5,482.7c-0.5,0.8-1,1.3-1.3,1.8h1.8V482h-3.5v2.5h1.5l-1.1-0.5c0.4-0.6,0.8-1.5,1.1-2L1362.5,482.7z
			 M1367.5,488.9c0.4,0,0.5-0.1,0.5-0.5v-12.1h-8.2v1h6.7v2h-6.7v0.9h5.8v6.4h-4c1.5,0.8,3.3,1.9,3.9,2.4
			C1366.4,488.9,1367.2,488.9,1367.5,488.9L1367.5,488.9z M1362.9,470.4v0.9h5.1v-0.9H1362.9z M1362.9,474h5.1v-0.9h-5.1L1362.9,474
			z"/>
		<path class="st4" d="M1415.4,1552.8c-0.3,2.6-0.8,5.7-1.3,7.7c-0.9-0.4-1.9-0.6-2.8-0.8c0.6-2.4,1-4.9,1.2-7.4L1415.4,1552.8z
			 M1421.2,1550.9c-0.1-0.4-0.2-0.9-0.4-1.4c-6.3,1-7.4,1.3-8.2,1.7c-0.3-1.1-0.7-2.2-1.1-3.3c0.8-0.2,1.5-0.9,2.5-2.2
			c0.8-0.9,1.4-1.8,2.1-2.8c-1.3,0.1-2.5,0.3-3.7,0.7c-0.2-0.7-0.8-2.4-1.1-3.3c0.6-0.2,1.1-0.8,1.7-1.7c1.5-2.5,2.7-5.1,3.5-7.9
			l3.4,1.3c-1.1,2.7-2.5,5.3-4.1,7.8l2.2-0.2c0.9-1.5,1.7-3,2.4-4.5l3.1,1.9c-1.9,3.6-4.2,6.9-6.8,10.1l3.2-0.4
			c-0.3-0.9-0.6-1.7-0.8-2.5l2.4-0.8c0.9,2.1,1.6,4.3,2.2,6.5L1421.2,1550.9z M1418.6,1552c0.4,2.3,0.7,4.5,0.9,6.8l-2.8,0.7
			c-0.1-2.3-0.4-4.6-0.8-6.9L1418.6,1552z M1440.4,1558.5c-1.4-1.2-3.9-2.8-6.2-4.4v3.6c0,1.6-0.3,2.5-1.3,3.1
			c-1.4,0.5-2.8,0.7-4.3,0.6c-0.2-1.1-0.5-2.3-1.1-3.3c1.1,0,2.2,0,2.6,0s0.5-0.1,0.5-0.4v-3.3c-2,1.4-3.9,2.8-5.6,3.9l-1.7-2.6
			c0.2,0.6,0.3,1.1,0.4,1.5l-2.6,1c-0.4-2.1-1-4.2-1.8-6.3l2.5-0.8c0.5,1.3,1,2.7,1.3,4.1c1.9-1,4.7-2.7,7.5-4.4v-4.7h-7.7v-3.4h11
			l0.3-1.5h-9.7c0.9-2.7,2-7.1,2.7-10.4l3.6,0.4c-0.2,0.7-0.4,1.5-0.6,2.4h5.7l0.6-0.1l2.7,0.4c-0.4,2.8-1.1,6.1-1.7,9h4.6v3.4h-7.9
			v4.4l0.8,0.4c1.2-1.4,2.2-2.9,3.1-4.5l3.1,1.8c-1.3,1.5-2.6,3.1-3.8,4.2c1.9,1.2,3.9,2.4,5,3.3L1440.4,1558.5z M1427.4,1552.2
			c-1.1-1.4-2.4-2.6-3.7-3.7l2-2c1.4,1,2.7,2.2,3.8,3.4L1427.4,1552.2z M1434.9,1538.2l0.4-1.8h-5.6c-0.2,0.7-0.3,1.2-0.5,1.8
			H1434.9z"/>
		<path class="st4" d="M1460.8,1553.6h3.5v6.8h-3.5v-0.9H1446v-5.9h3.5v3h3.9v-3.6h3.6v3.6h3.8L1460.8,1553.6z M1452.8,1548.3v1.4
			h20.6c0,0.5-0.1,0.9-0.1,1.4c-0.4,5.6-0.9,8.1-1.8,9c-0.6,0.7-1.4,1.1-2.2,1.1c-1.2,0.1-2.3,0.2-3.5,0.1c0-1.2-0.3-2.3-0.9-3.3
			c1.1,0.1,2,0.1,2.5,0.1c0.4,0.1,0.8-0.1,1-0.4c0.4-0.5,0.8-1.9,1.1-5.2H1449v-19.3h7.4c0.3-0.8,0.5-1.7,0.6-2.6l4.7,0.4
			c-0.3,0.8-0.7,1.5-1.1,2.2h9.2v10.7h-16.9v1.6h21.8v2.8L1452.8,1548.3z M1452.8,1535.8v1.5h12.9v-1.5H1452.8z M1465.7,1541.2v-1.4
			h-12.9v1.4H1465.7z"/>
		<path class="st4" d="M177,230.4c1.9-2,3.1-4.6,3.5-7.4l3.4,0.9c-0.6,3.2-1.6,6.4-3.8,8.4L177,230.4z M207.1,218.8c0,0,0,1-0.1,1.5
			c-0.4,6.9-0.9,9.8-1.8,10.8c-0.6,0.7-1.5,1.2-2.5,1.2c-1.3,0.1-2.7,0.2-4,0.1c-0.1-1.3-0.5-2.5-1.1-3.6c1,0.1,2.1,0.2,3.1,0.1
			c0.5,0,0.8,0,1.1-0.4c0.5-0.6,0.8-2.3,1.1-6.5h-21.8v-18.9h23.5v3.3h-9.9v2h8.7v3.1h-8.7v2h8.7v3h-8.7v2.1L207.1,218.8z
			 M185.1,206.6v2h5.9v-2H185.1z M191,211.7h-5.9v2h5.9V211.7z M185.1,218.8h5.9v-2.1h-5.9V218.8z M188.4,224
			c0.7,2.2,1.1,4.4,1.3,6.7l-3.5,0.6c-0.1-2.3-0.5-4.6-1.1-6.8L188.4,224z M193.8,223.7c0.9,1.9,1.6,3.9,2,6l-3.2,0.9
			c-0.3-2.1-0.9-4.1-1.8-6.1L193.8,223.7z M198.2,228.5c-0.5-1.7-1.3-3.2-2.3-4.7l2.8-0.9c1,1.4,1.8,2.9,2.5,4.6L198.2,228.5z"/>
		<path class="st4" d="M220.9,223c-0.6-0.9-1.5-2-2.4-3.1v12.8h-3.8v-12.1c-1.2,1.1-2.4,2-3.7,2.9c-0.3-1.4-0.8-2.7-1.5-4
			c3.5-2,6.4-4.9,8.4-8.4h-7.5v-3.5h5.7c-0.7-1.4-1.6-2.6-2.6-3.8l3-1.6c1.2,1.2,2.2,2.6,3,4.1l-2.2,1.3h2.6l0.7-0.2l2,1.5
			c-1,2.4-2.2,4.7-3.7,6.9c1.3,1.1,3.7,3.4,4.3,4.1L220.9,223z M240.6,228v3.6h-20V228h3.3v-24.4h14V228H240.6z M227.6,207.2v4.4
			h6.3v-4.4H227.6z M233.9,215.2h-6.3v4.6h6.3V215.2z M227.6,228h6.3v-4.8h-6.3V228z"/>
		<path class="st4" d="M142.7,676.7v3.4h10.4v3.5H148l3.3,1.2c-1.1,1.8-2.4,3.8-3.4,5.2h7v3.6h-28.3V690h6.5
			c-0.7-1.9-1.6-3.6-2.7-5.3l2.6-1.1h-4.8v-3.5h10.4v-3.4h-6.7v-1.6c-1.4,0.7-2.8,1.2-4.2,1.8c-0.7-1.3-1.5-2.5-2.6-3.6
			c6.2-1.8,12.1-5.1,15.2-10l3.7,1.7c-0.3,0.4-0.6,0.8-0.9,1.3c3.9,3.3,8.5,5.6,13.4,7c-1,1-1.9,2.2-2.7,3.4c-1.5-0.6-3-1.2-4.5-1.9
			v1.9L142.7,676.7z M133.6,683.6c1.2,1.6,2.1,3.4,2.9,5.2l-2.7,1.2h4.8v-6.4L133.6,683.6z M146.4,673.2c-2-1.2-3.9-2.7-5.7-4.3
			c-1.6,1.6-3.4,3.1-5.3,4.3H146.4z M142.7,683.6v6.4h4.1l-2.2-0.9c1.1-1.7,2.1-3.6,2.9-5.5L142.7,683.6z"/>
		<path class="st4" d="M172.2,677.6h-8.6v16.7h-3.9V665h12.5L172.2,677.6z M163.6,668.2v1.7h5v-1.7H163.6z M168.6,674.5v-1.9h-5v1.9
			H168.6z M187.3,689.6c0,2.2-0.5,3.4-1.9,4s-3.6,0.7-6.8,0.7c-0.3-1.4-0.7-2.7-1.4-4c2.1,0.1,4.5,0.1,5.2,0.1s0.9-0.2,0.9-0.8
			v-11.8h-8.9V665h12.8L187.3,689.6z M178.2,668.2v1.7h5.2v-1.7H178.2z M183.4,674.6v-1.9h-5.2v1.9H183.4z"/>
		<path class="st4" d="M59.5,993.4c-1.7-1.4-3.5-2.6-5.4-3.7l1.8-2.9c1.9,1,3.7,2.1,5.5,3.3L59.5,993.4z M62.5,997.5
			c-1.4,3.4-3.2,7.1-4.8,10.3l-2.8-2.6c1.9-3.3,3.7-6.7,5.2-10.3L62.5,997.5z M60.6,984.7c-1.6-1.3-3.3-2.6-5.1-3.7l1.9-2.8
			c1.8,1,3.5,2.1,5.1,3.3v-1.4h4.4v-2.2h3.7v2.2h4.6v3.1h-4.6v1.8h3.8v0.3c2.6-1.8,4.7-4.3,6.1-7.1l3.5,1.2c-1.7,3.3-4.1,6.2-7,8.5
			c-0.7-1-1.6-1.8-2.6-2.5v2.6H63v-3h3.8v-1.8h-4.4v-1.5L60.6,984.7z M84.9,998c-1.8,4.2-4.9,7.8-8.8,10.2c-0.7-1.1-1.5-2-2.5-2.8
			c0.3-0.1,0.5-0.3,0.8-0.4c-4.2,0.9-8.4,1.8-11.7,2.5l-1-3.4c2-0.3,4.6-0.8,7.4-1.3c0.7-1.9,1.3-3.9,1.7-5.9l3.6,1
			c-0.6,1.4-1.2,3-1.8,4.3l3.1-0.6l0.2,2.5c2.4-1.9,4.3-4.3,5.4-7.1L84.9,998z M74.2,996.8H63.3v-7.4h10.9V996.8z M66.5,997
			c0.8,1.5,1.3,3.2,1.6,4.9l-3.3,1c-0.2-1.7-0.7-3.4-1.4-5L66.5,997z M70.7,992h-4.1v2.2h4.1V992z M84.4,988.5
			c-1.7,3.4-4.1,6.3-7.2,8.6c-0.8-1-1.7-1.9-2.7-2.6c2.7-1.8,4.8-4.3,6.3-7.1L84.4,988.5z"/>
		<path class="st4" d="M92.2,992.7c-1.5-1.3-3.2-2.4-5.1-3.2l2.1-2.8c1.9,0.7,3.6,1.6,5.2,2.8L92.2,992.7z M87.5,1006
			c1.7-3.4,3.1-6.9,4.3-10.5l3.1,2c-1.1,3.5-2.5,7.3-3.9,10.5L87.5,1006z M93.4,984.2c-1.5-1.4-3.3-2.5-5.1-3.4l2.2-2.8
			c1.9,0.8,3.6,1.8,5.2,3L93.4,984.2z M116.9,1004.2c0,1.6-0.3,2.5-1.3,3.1s-2.3,0.7-4.3,0.7c-0.2-1.1-0.6-2.2-1.1-3.2
			c0.9,0.1,1.9,0.1,2.8,0c0.4,0,0.6-0.2,0.6-0.6v-7.6c-0.8,0.9-1.6,1.6-2.4,2.5l-0.9-2.1c-0.4,4.1-1.4,8.5-4,11.5
			c-0.9-0.8-1.8-1.5-2.9-2c0.7-0.8,1.3-1.7,1.7-2.6h-6.2v2.2h-3.3v-13.5h3.3v-5h-4.2V984h4.2v-5.3h3.5v5.3h3.8v3.5h-3.7v5h3.1v10.4
			c1.4-3.5,1.6-7.6,1.6-11v-13.2h9.9L116.9,1004.2z M102,995.9h-3.2v4.6h3.2V995.9z M110.4,991.9c0,1.2,0,2.4-0.1,3.6
			c0.9-0.6,2-1.4,3.2-2.4v-2.6l-1,0.8c-0.6-0.9-1.3-1.8-2-2.6L110.4,991.9z M110.4,982.2v4.5l0.9-0.6c0.7,0.7,1.5,1.5,2.2,2.3v-6.2
			L110.4,982.2z"/>
		<path class="st4" d="M1191.6,1835.7h-5.9v-3.2h5.9v-1.5h3.9v1.5h4.2v3.2h-4.2v1.4h-3.9V1835.7z M1213.6,1857.8
			c0,1.6-0.3,2.4-1.3,3s-2.3,0.6-4.2,0.6c-0.2-1-0.6-1.9-1-2.8l-1.3,1.8c-1.3-1.2-2.7-2.3-4.1-3.3v4h-3v-3.8
			c-1.5,1.4-3.3,2.5-5.2,3.3c-0.6-0.8-1.2-1.6-2-2.3c1.9-0.5,3.6-1.3,5.2-2.4h-3.6v-6.4h5.6v-0.8h-6.4v-2h6.4v-1h-8v16h-3.6v-24h12
			v7.7h2.2v-7.7h12.3L1213.6,1857.8z M1190.7,1839.8v0.9h4.9v-0.9H1190.7z M1195.6,1843.4v-1h-4.9v1H1195.6z M1195.5,1853.9h1.6
			c-0.3-0.6-0.7-1.3-1.1-1.9l1.4-0.5c0.4,0.6,0.8,1.1,1.2,1.8l-1.3,0.6h1.8v-2.5h-3.5L1195.5,1853.9z M1214.8,1832.5v3.2h-5.7v1.4
			h-3.9v-1.4h-4.5v-3.2h4.5v-1.5h3.9v1.5L1214.8,1832.5z M1204.4,1852.1c-0.5,0.8-0.9,1.3-1.3,1.8h1.8v-2.5h-3.5v2.6h1.5l-1.1-0.5
			c0.4-0.6,0.9-1.5,1.1-2L1204.4,1852.1z M1209.4,1858.3c0.4,0,0.5-0.1,0.5-0.5v-12.1h-8.2v1h6.7v2h-6.7v0.8h5.8v6.4h-4
			c1.5,0.8,3.3,1.9,3.9,2.4C1208.2,1858.3,1209,1858.3,1209.4,1858.3L1209.4,1858.3z M1204.7,1839.8v0.9h5.1v-0.9H1204.7z
			 M1204.7,1843.4h5.1v-0.9h-5.1V1843.4z"/>
		<path class="st4" d="M1226.3,1836.6h2.4v22.2h-2.4v-1.6h-7.8v-20.7h2.5v17.3h1.1v-22.2h3v22.2h1.2L1226.3,1836.6z M1237.6,1856
			c-2,2.1-4.2,4-6.6,5.7c-0.6-1-1.3-2-2.1-3c2-1.1,3.9-2.4,5.6-4L1237.6,1856z M1248.2,1851v3.2h-19v-3.2h1l-0.4-16.3
			c1.5-0.8,2.9-1.6,4.3-2.6l2,2.5v-3.3h2.7v2.8h2.7v2.9h-2.7v2h2.9v8.8c0,1.1-0.2,1.8-0.9,2.2c-1,0.4-2.1,0.5-3.2,0.4
			c-0.1-0.6-0.2-1.2-0.5-1.8c-0.5-0.4-1-0.7-1.6-1c0.7-1.6,1-3.4,1-5.1l2,0.3c-0.1,1.8-0.4,3.6-1,5.3c0.7,0,1.2,0,1.4,0
			s0.4-0.1,0.4-0.4v-5.7h-3.2v-7.3c-1,0.6-2.1,1.2-3.2,1.8l0.1,2.7h2.3v2.9h-2.2l0.1,2.8h2.1v3h-2.1l0.1,3.1h10.7
			c0.1-0.9,0.1-1.9,0.2-2.9h-1.7v-2.9h1.8c0-1,0-1.9,0.1-2.9h-1.9v-3h1.9c0-1.1,0-2.1,0-3.1h-2.1v-2.9h4.9c0,5.6-0.1,12.9-0.4,17.7
			L1248.2,1851z M1241.7,1854.6c2.2,1.3,4.2,2.8,6.2,4.4l-2.2,2.7c-1.9-1.7-4-3.3-6.1-4.7L1241.7,1854.6z"/>
		<path class="st4" d="M429.4,1800c-1.1,4.9-2.9,11-5.6,14.6c-1.2-0.8-2.5-1.4-3.8-2c2.6-3.3,4.3-9,5-13.3L429.4,1800z
			 M437.7,1791.8v25.3c0,2.4-0.6,3.5-2,4.1s-3.8,0.8-6.9,0.8c-0.3-1.4-0.9-2.8-1.5-4.1c2.1,0.1,4.5,0.1,5.3,0.1s1-0.2,1-0.8v-25.3
			L437.7,1791.8z M445.1,1798.9c2.7,4.7,5.4,10.6,6.2,14.7l-4.2,1.7c-0.7-4-3.1-10.1-5.7-14.9L445.1,1798.9z"/>
		<path class="st4" d="M464,1815.4c-3.7,1.2-7.6,2.3-10.7,3.2l-0.7-3.7c1.1-0.3,2.5-0.6,4-1v-7.7h-3.1v-3.6h3.1v-5.8h-3.4v-3.6h10.3
			v3.6H460v5.8h2.9v3.6H460v6.8c1.2-0.3,2.4-0.7,3.5-1L464,1815.4z M465.8,1807h3.4v3.9c0,3.7-0.7,8.1-5.6,11
			c-0.7-1-1.5-1.8-2.4-2.6c4-2.4,4.5-5.7,4.5-8.5V1807z M480.8,1807.1c-0.3-0.6-0.8-1.3-1.3-2c-11.5,0.8-13.2,1-14.4,1.4
			c-0.2-0.7-0.8-2.5-1.1-3.4c1-0.4,1.8-1.1,2.5-2c0.4-0.5,1.2-1.5,2.1-2.8h-4.4v-3.3h6.5c0.6-1.2,1.3-2.3,1.9-3.6l3.6,1.4
			c-0.4,0.7-0.8,1.5-1.3,2.2h7.9v3.3h-4.5c1.8,2.2,4.2,5.1,5.3,6.9L480.8,1807.1z M472.8,1798.2c-1.1,1.5-2.2,3-3.3,4.2l7.8-0.4
			c-0.6-0.8-1.2-1.5-1.7-2.2l2.5-1.6H472.8z M471.2,1807.5h3.4v12.8h-3.4V1807.5z M481.8,1818.2c0.5,0,1.1-0.1,1.6-0.2
			c0.1,0.9,0.1,2.1,0.3,3c-0.6,0.2-1.2,0.3-1.8,0.3h-1.7c-3,0-3.7-1.3-3.7-4.5v-9.7h3.5v9.7c0,1.1,0,1.4,0.5,1.4L481.8,1818.2z"/>
		<path class="st4" d="M516.1,1803.2c-1.7,2.2-3.5,4.3-5.4,6.3c1.4,2.8,3.5,5.2,6.1,6.9c-1,0.8-1.8,1.8-2.4,2.9
			c-2.6-1.9-4.7-4.3-6.2-7.1v5.2c0,2-0.4,3-1.5,3.6s-2.8,0.8-5.2,0.8c-0.3-1.3-0.7-2.6-1.3-3.8c1.6,0.1,3.1,0.1,3.6,0
			s0.7-0.2,0.7-0.7v-5.4c-2.3,2.2-4.6,4.5-6.7,6.3l-1.8-2.8c-3.4,1.1-6.9,2.2-9.7,3.1l-0.8-3.7c1.1-0.3,2.5-0.7,3.9-1.1v-7.9h-3.3
			v-3.6h3.3v-5.8h-3.4v-3.6h10.4v3.6H493v5.8h2.8v3.6H493v6.9l3.3-1l0.4,2.1c2.1-1.6,5-3.9,7.8-6.1v-7.8h-7.5v-3.6h7.5v-5.2h3.7v5.2
			h4.4c-1-1.1-2.2-2.2-3.4-3.1l2.1-2c1.4,0.9,2.8,2,3.9,3.2l-1.9,1.8h2.8v3.6h-8v1.3c0.3,1.6,0.7,3.3,1.2,4.8
			c1.2-1.5,2.3-3.2,3.3-4.8L516.1,1803.2z M500.1,1801.6c1.3,1.8,2.4,3.7,3.1,5.8l-3.2,1.5c-0.7-2.1-1.7-4.1-3-5.9L500.1,1801.6z"/>
		<path class="st3" d="M1198.6,322c-0.8,2.4-1.9,4.6-3.3,6.7c-0.8-0.6-1.7-1.2-2.6-1.8c1.2-1.8,2.2-3.7,2.9-5.8L1198.6,322z
			 M1203.2,320.1V331h-3.8V320h-6.1v-3.3h6.1v-2.5h-6.3V311h3.2c-0.2-1.2-0.5-2.3-0.9-3.4l2.7-0.6h-4.4v-3.1h5.6
			c-0.3-0.9-0.7-1.8-1-2.6l3.9-1c0.5,1.1,1.1,2.4,1.5,3.5h4.7v3.2h-4.1l2.7,0.5c-0.5,1.2-1,2.5-1.5,3.5h3.4v3.2h-5.6v2.5h5.1v3.3
			L1203.2,320.1z M1198.5,307c0.5,1.1,0.8,2.2,1.1,3.4l-2.4,0.7h4.7c0.5-1.3,1-2.7,1.4-4.1H1198.5z M1223.4,315h-3v16h-3.8v-16.1h-3
			v0.4c0,4.8-0.4,11.6-3.2,15.8c-0.9-0.9-1.9-1.7-3-2.3c0.6-1,1.1-2.1,1.5-3.2l-2.3,1.4c-0.7-1.7-1.6-3.3-2.6-4.9l2.6-1.4
			c0.9,1.4,1.7,2.8,2.4,4.3c0.8-3.2,1.1-6.4,1-9.7v-11.7c3.4-0.6,6.7-1.5,9.9-2.8l3,2.9c-3,1.1-6.1,1.9-9.3,2.5v5.1h9.9L1223.4,315z
			"/>
		<path class="st3" d="M1239.9,321.7l0.7,3.5c-4.6,2-9.7,4-13.5,5.5l-1.7-4l0,0c2.2-0.7,5.4-1.8,8.7-2.9v-11.6h-7.6v-3.9h7.5v-7.2
			h4.1v21.3L1239.9,321.7z M1250.6,326.4c1.2,0,1.4-1.5,1.6-7.4c1.1,0.8,2.4,1.4,3.7,1.8c-0.4,6.8-1.3,9.4-5,9.4h-3.9
			c-3.6,0-4.7-1.4-4.7-5.9v-23.2h4.1v7.1h8.6v3.9h-8.6v12.2c0,1.8,0.2,2.1,1.2,2.1L1250.6,326.4z"/>
		<path class="st3" d="M1275.7,308.8v3.7h10.6v11c0,1.9-0.4,3-1.8,3.6s-3.2,0.7-5.8,0.7c-0.2-1.3-0.7-2.6-1.3-3.8
			c1.6,0.1,3.6,0.1,4.1,0.1s0.7-0.1,0.7-0.6v-7.2h-6.5V331h-4.1v-14.8h-6.1v11.5h-3.9v-15.3h10v-3.7h-12.7V305h13.1
			c-0.5-1.2-1.1-2.5-1.7-3.6l3.9-1.2c0.8,1.5,1.9,3.5,2.5,4.8h12.1v3.8L1275.7,308.8z"/>
	</g>
</g>
</svg>
