<svg xmlns="http://www.w3.org/2000/svg" viewBox="0 0 200 200"><defs><style>.cls-1{fill:#c69c6d;}.cls-2,.cls-4{fill:none;stroke:#754c24;stroke-linecap:round;stroke-linejoin:round;}.cls-2{stroke-width:5.36px;}.cls-3{fill:#a67c52;}.cls-4{stroke-width:5px;}.cls-5{fill:#754c24;}</style></defs><g id="圖層_1" data-name="圖層 1"><polygon class="cls-1" points="155.03 187.87 155.03 70.94 55.79 70.86 55.79 187.87 155.03 187.87"/><line class="cls-2" x1="58.39" y1="65.86" x2="140.43" y2="65.86"/><line class="cls-2" x1="99.41" y1="135.14" x2="99.41" y2="65.86"/><path class="cls-3" d="M136.2,45.27v7A3.69,3.69,0,0,1,132.51,56a3.68,3.68,0,0,0-3.68,3.68v11.3h15.6v4.3L133.86,85.81a8.82,8.82,0,0,0,12.47,12.47l8.54-8.54v15.48L169,93.29a8.59,8.59,0,0,0,3-6.56V45.27Z"/><path class="cls-3" d="M62.62,42.27v7A3.69,3.69,0,0,0,66.31,53,3.68,3.68,0,0,1,70,56.64v11.3H54.39v4.3L65,82.81A8.82,8.82,0,0,1,52.49,95.28L44,86.74v15.48L29.8,90.29a8.59,8.59,0,0,1-3.05-6.56V42.27Z"/><rect class="cls-1" x="41.53" y="7.8" width="26.53" height="48.4" rx="2.46" transform="translate(22.79 86.8) rotate(-90)"/><rect class="cls-1" x="140.76" y="7.8" width="26.53" height="48.4" rx="2.46" transform="translate(122.02 186.03) rotate(-90)"/></g><g id="圖層_2" data-name="圖層 2"><rect class="cls-4" x="36.53" y="2.8" width="26.53" height="48.4" rx="2.46" transform="translate(22.79 76.8) rotate(-90)"/><path class="cls-4" d="M30.75,40.27V81.73a8.59,8.59,0,0,0,3,6.56L48,100.22"/><path class="cls-4" d="M53.11,54H55a3.38,3.38,0,0,1,3.38,3.38V70.24L69,80.81a8.82,8.82,0,0,1,0,12.47h0a8.82,8.82,0,0,1-12.47,0L39.35,76.14"/><path class="cls-4" d="M66.62,40.27v7A3.69,3.69,0,0,0,70.31,51h0A3.68,3.68,0,0,1,74,54.64v11.3"/><circle class="cls-5" cx="35.58" cy="29.89" r="2.89"/><rect class="cls-4" x="135.76" y="2.8" width="26.53" height="48.4" rx="2.46" transform="translate(122.02 176.03) rotate(-90)"/><path class="cls-4" d="M168.07,40.27V81.73a8.59,8.59,0,0,1-3,6.56l-14.15,11.93"/><path class="cls-4" d="M145.71,54h-1.9a3.38,3.38,0,0,0-3.38,3.38V70.24L129.86,80.81a8.82,8.82,0,0,0,0,12.47h0a8.82,8.82,0,0,0,12.47,0l17.14-17.14"/><path class="cls-4" d="M132.2,40.27v7A3.69,3.69,0,0,1,128.51,51h0a3.68,3.68,0,0,0-3.68,3.68v11.3"/><circle class="cls-5" cx="163.24" cy="29.89" r="2.89"/><polyline class="cls-2" points="149.03 182.87 99.41 135.14 49.79 182.87"/><polyline class="cls-2" points="149.03 86.58 149.03 182.87 49.79 182.87 49.79 86.58"/><line class="cls-2" x1="58.39" y1="65.86" x2="140.43" y2="65.86"/><line class="cls-2" x1="99.41" y1="135.14" x2="99.41" y2="65.86"/></g></svg>