<svg xmlns="http://www.w3.org/2000/svg" viewBox="0 0 200 200"><defs><style>.cls-1{fill:#c69c6d;}.cls-2{fill:#a67c52;}.cls-3{fill:none;stroke:#754c24;stroke-linecap:round;stroke-linejoin:round;stroke-width:5px;}.cls-4{fill:#754c24;}</style></defs><g id="圖層_1" data-name="圖層 1"><rect class="cls-1" x="163.39" y="20.33" width="26.41" height="49.88" rx="3.85"/><rect class="cls-1" x="33.46" y="138.17" width="26.41" height="49.88" rx="3.85" transform="translate(-101.67 80.77) rotate(-45)"/><path class="cls-1" d="M126.81,56.57V100a5.27,5.27,0,0,1-5.26,5.26H32.83A5.26,5.26,0,0,1,27.58,100V51.39a5.25,5.25,0,0,1,5.25-5.26H108l-4.5,5,.28,6.11,5.81,5.12,6-.4L122,56.27l4.7-4.7Z"/><path class="cls-2" d="M104.21,41.05H115.9L106.83,49a8.56,8.56,0,0,0,0,12.09h0a8.56,8.56,0,0,0,12.09,0L126,54h4.17V70.21h11.57a3.69,3.69,0,0,0,3.68-3.69h0a3.69,3.69,0,0,1,3.69-3.68h7V27H119.17A8.35,8.35,0,0,0,112.73,30Z"/><path class="cls-1" d="M155.85,110.23a8.05,8.05,0,0,0-11.38,0l-19.15,19.14h0a7.7,7.7,0,0,0-7.23-5.07h-29l-4.19-2.44a21.09,21.09,0,0,0-25.51,3.31l-12.7,12.71L72.28,163.5,76.77,159a11.27,11.27,0,0,1,8-3.31h40a7.26,7.26,0,0,0,5.64-2.68l26.06-32A8.06,8.06,0,0,0,155.85,110.23Z"/></g><g id="圖層_2" data-name="圖層 2"><rect class="cls-3" x="158.84" y="16.64" width="26.53" height="48.4" rx="2.46"/><rect class="cls-3" x="32.69" y="131.74" width="26.53" height="48.4" rx="2.46" transform="translate(-96.81 78.17) rotate(-45)"/><path class="cls-3" d="M158.84,21.8H117.38a8.59,8.59,0,0,0-6.56,3.05L98.9,39"/><path class="cls-3" d="M145.08,44.16v1.9a3.37,3.37,0,0,1-3.37,3.38H128.87L118.3,60a8.81,8.81,0,0,1-12.46,0h0a8.81,8.81,0,0,1,0-12.47L123,30.4"/><path class="cls-3" d="M158.84,57.67h-7a3.69,3.69,0,0,0-3.68,3.69h0A3.69,3.69,0,0,1,144.47,65h-11.3"/><path class="cls-3" d="M132.94,49.44V92.9a5.27,5.27,0,0,1-5.26,5.26H39A5.27,5.27,0,0,1,33.7,92.9V44.26A5.26,5.26,0,0,1,39,39h75.18"/><path class="cls-4" d="M92,75.12c0-3.83-2.32-5.59-5.31-6.89L83,66.64c-2-.84-4.26-1.79-4.26-4.29,0-2.32,1.9-3.8,4.82-3.8a8.1,8.1,0,0,1,4.87,1.6A1.38,1.38,0,0,0,90.06,58a10.65,10.65,0,0,0-5.23-2.14.45.45,0,0,0,0-.11V53.28a1.54,1.54,0,1,0-3.07,0v2.43s0,.08,0,.13c-3.79.61-6.42,3.25-6.42,6.72,0,3.77,2.84,5.6,5.24,6.61l3.72,1.62c2.43,1.09,4.29,1.94,4.29,4.57s-2,4.23-5.41,4.23a9.89,9.89,0,0,1-6.16-2.31,1.37,1.37,0,0,0-1.9.16l-.13.15a1.39,1.39,0,0,0,.15,2,12.25,12.25,0,0,0,6.61,2.78s0,.05,0,.08v2.11a1.54,1.54,0,0,0,3.07,0V82.43a.53.53,0,0,0,0-.12C89.24,81.72,92,78.76,92,75.12Z"/><circle class="cls-4" cx="61.61" cy="68.91" r="2.89"/><circle class="cls-4" cx="38.84" cy="145.48" r="2.89"/><circle class="cls-4" cx="104.64" cy="68.91" r="2.89"/><circle class="cls-4" cx="169.22" cy="26.63" r="2.89"/><path class="cls-3" d="M42.67,133.89l12.7-12.71a21.09,21.09,0,0,1,25.51-3.31l4.19,2.44h29A7.71,7.71,0,0,1,121.8,128h0a7.71,7.71,0,0,1-7.71,7.71h-25"/><path class="cls-3" d="M68.28,159.5,72.77,155a11.27,11.27,0,0,1,8-3.31h40a7.29,7.29,0,0,0,5.64-2.68l26.06-32a8.06,8.06,0,0,0-.56-10.78h0a8.05,8.05,0,0,0-11.38,0l-19.15,19.14"/></g></svg>