<svg xmlns="http://www.w3.org/2000/svg" viewBox="0 0 200 200"><defs><style>.cls-1{fill:#c69c6d;}.cls-2{fill:#a67c52;}.cls-3,.cls-5{fill:none;stroke:#754c24;stroke-linecap:round;stroke-linejoin:round;}.cls-3{stroke-width:5px;}.cls-4{fill:#754c24;}.cls-5{stroke-width:5.36px;}</style></defs><g id="圖層_1" data-name="圖層 1"><rect class="cls-1" x="166.19" y="35.87" width="26.41" height="49.88" rx="3.85"/><path class="cls-1" d="M164.77,116.22a5.31,5.31,0,0,1,0,7.49l-42.19,42.18H74.1L19.35,111.14a5.29,5.29,0,0,1,0-7.49L82,41a5.29,5.29,0,0,1,7.49,0L108.6,60.06l-2.8,4.35-.33,6.68,5.59,5.81h6.71l3.69-4Z"/><path class="cls-2" d="M121.12,41.12a8.56,8.56,0,0,0-6.56,3.05l-7.81,10,7.74,7.74-4.91,4.91A8.81,8.81,0,0,0,122,79.32L127,74.41l10,10h11.3a3.69,3.69,0,0,0,3.69-3.69A3.68,3.68,0,0,1,155.58,77h7V41.12Z"/></g><g id="圖層_2" data-name="圖層 2"><rect class="cls-3" x="160.58" y="30.96" width="26.53" height="48.4" rx="2.46"/><path class="cls-3" d="M160.58,36.12H119.12a8.56,8.56,0,0,0-6.56,3.05l-7.81,10"/><path class="cls-3" d="M146.82,58.47v1.91a3.38,3.38,0,0,1-3.37,3.38H130.61L120,74.32a8.81,8.81,0,0,1-12.46,0h0a8.81,8.81,0,0,1,0-12.47l17.13-17.13"/><path class="cls-3" d="M160.58,72h-7a3.68,3.68,0,0,0-3.68,3.68h0a3.69,3.69,0,0,1-3.69,3.69h-11.3"/><circle class="cls-4" cx="170.96" cy="40.95" r="2.89"/><path class="cls-5" d="M81.1,165.89,17.35,102.14a5.29,5.29,0,0,1,0-7.49L80,32a5.29,5.29,0,0,1,7.49,0l25,25"/><path class="cls-5" d="M125,69.41l37.81,37.81a5.31,5.31,0,0,1,0,7.49l-51.19,51.18"/><polyline class="cls-5" points="15.8 98.4 83.35 97.97 83.77 30.42"/><line class="cls-5" x1="83.35" y1="97.97" x2="131.43" y2="146.05"/><path class="cls-5" d="M125.62,151.85h54.47a7,7,0,0,1,7,7h0a7,7,0,0,1-7,7H22.82a7,7,0,0,1-7-7h0a7,7,0,0,1,7-7H67.06"/></g></svg>